<svg width="1295" height="642" viewBox="0 0 1295 642" fill="none" xmlns="http://www.w3.org/2000/svg">
<path d="M1197.61 627.76C1197.35 626.361 1193.44 625.9 1188.87 626.73C1184.31 627.559 1180.81 629.366 1181.07 630.765C1181.33 632.164 1185.25 632.625 1189.81 631.796C1194.38 630.966 1197.87 629.159 1197.61 627.76Z" fill="#F29EEB"/>
<path d="M1191.41 637.373C1190.04 637.727 1187.97 634.369 1186.8 629.873C1185.63 625.378 1185.8 621.447 1187.18 621.094C1188.56 620.741 1190.62 624.098 1191.79 628.594C1192.96 633.089 1192.79 637.02 1191.41 637.373Z" fill="#F29EEB"/>
<path d="M1293.61 48.7599C1293.35 47.361 1289.44 46.8997 1284.87 47.7296C1280.31 48.5596 1276.81 50.3664 1277.07 51.7653C1277.33 53.1643 1281.25 53.6255 1285.81 52.7956C1290.38 51.9657 1293.87 50.1589 1293.61 48.7599Z" fill="#4D9EFA"/>
<path d="M1287.41 58.3735C1286.04 58.7268 1283.97 55.369 1282.8 50.8736C1281.63 46.3781 1281.8 42.4474 1283.18 42.094C1284.56 41.7407 1286.62 45.0985 1287.79 49.5939C1288.96 54.0894 1288.79 58.0201 1287.41 58.3735Z" fill="#4D9EFA"/>
<path d="M211.421 11.9953L223.801 18.5514L236.837 13.4208L230.28 25.801L235.411 38.8367L223.031 32.2806L209.995 37.4112L216.551 25.031L211.421 11.9953Z" fill="#D2EDF9"/>
<path d="M8.14288 164.279L15.649 168.254L23.5526 165.143L19.5776 172.649L22.6883 180.553L15.1822 176.578L7.27859 179.689L11.2536 172.183L8.14288 164.279Z" fill="#D4C3EB"/>
<path d="M79.5311 603.233C78.5489 601.386 80.7024 599.461 82.4276 600.644L87.6795 604.244C88.4848 604.796 89.571 604.685 90.2491 603.983L94.6716 599.402C96.1243 597.898 98.6203 599.351 98.0288 601.357L96.2281 607.464C95.952 608.401 96.3924 609.4 97.27 609.828L102.993 612.618C104.873 613.535 104.262 616.358 102.171 616.415L95.8067 616.59C94.8307 616.617 94.0168 617.344 93.881 618.311L92.9956 624.616C92.7048 626.688 89.8313 626.979 89.1306 625.008L86.9976 619.009C86.6705 618.089 85.7271 617.54 84.7656 617.709L78.4953 618.816C76.4355 619.179 75.2705 616.536 76.9282 615.261L81.9747 611.379C82.7485 610.783 82.9794 609.716 82.521 608.854L79.5311 603.233Z" fill="#BAEFE0"/>
</svg>
