<svg width="24" height="24" viewBox="0 0 24 24" fill="none" xmlns="http://www.w3.org/2000/svg">
<mask id="path-1-inside-1_3126_1565" fill="white">
<path d="M15.375 23.25C15.1761 23.25 14.9853 23.171 14.8447 23.0303C14.704 22.8897 14.625 22.6989 14.625 22.5V19.125H8.625C6.53642 19.125 4.53338 18.2953 3.05653 16.8185C1.57969 15.3416 0.75 13.3386 0.75 11.25C0.75 9.16142 1.57969 7.15838 3.05653 5.68153C4.53338 4.20469 6.53642 3.375 8.625 3.375H15.375C15.5739 3.375 15.7647 3.45402 15.9053 3.59467C16.046 3.73532 16.125 3.92609 16.125 4.125C16.125 4.32391 16.046 4.51468 15.9053 4.65533C15.7647 4.79598 15.5739 4.875 15.375 4.875H8.625C6.93425 4.875 5.31274 5.54665 4.11719 6.74219C2.92165 7.93774 2.25 9.55925 2.25 11.25C2.25 12.9408 2.92165 14.5623 4.11719 15.7578C5.31274 16.9534 6.93425 17.625 8.625 17.625H15.375C15.5739 17.625 15.7647 17.704 15.9053 17.8447C16.046 17.9853 16.125 18.1761 16.125 18.375V21.6814C19.3339 21.0878 21.75 16.719 21.75 11.25C21.7502 10.554 21.6362 9.86269 21.4125 9.20363C21.3487 9.01466 21.3626 8.80809 21.4511 8.62935C21.5396 8.45062 21.6955 8.31436 21.8844 8.25056C22.0734 8.18676 22.28 8.20064 22.4587 8.28915C22.6374 8.37765 22.7737 8.53353 22.8375 8.7225C23.1121 9.53682 23.2515 10.3906 23.25 11.25C23.25 18.0911 19.8645 23.25 15.375 23.25Z"/>
</mask>
<path d="M15.375 23.25C15.1761 23.25 14.9853 23.171 14.8447 23.0303C14.704 22.8897 14.625 22.6989 14.625 22.5V19.125H8.625C6.53642 19.125 4.53338 18.2953 3.05653 16.8185C1.57969 15.3416 0.75 13.3386 0.75 11.25C0.75 9.16142 1.57969 7.15838 3.05653 5.68153C4.53338 4.20469 6.53642 3.375 8.625 3.375H15.375C15.5739 3.375 15.7647 3.45402 15.9053 3.59467C16.046 3.73532 16.125 3.92609 16.125 4.125C16.125 4.32391 16.046 4.51468 15.9053 4.65533C15.7647 4.79598 15.5739 4.875 15.375 4.875H8.625C6.93425 4.875 5.31274 5.54665 4.11719 6.74219C2.92165 7.93774 2.25 9.55925 2.25 11.25C2.25 12.9408 2.92165 14.5623 4.11719 15.7578C5.31274 16.9534 6.93425 17.625 8.625 17.625H15.375C15.5739 17.625 15.7647 17.704 15.9053 17.8447C16.046 17.9853 16.125 18.1761 16.125 18.375V21.6814C19.3339 21.0878 21.75 16.719 21.75 11.25C21.7502 10.554 21.6362 9.86269 21.4125 9.20363C21.3487 9.01466 21.3626 8.80809 21.4511 8.62935C21.5396 8.45062 21.6955 8.31436 21.8844 8.25056C22.0734 8.18676 22.28 8.20064 22.4587 8.28915C22.6374 8.37765 22.7737 8.53353 22.8375 8.7225C23.1121 9.53682 23.2515 10.3906 23.25 11.25C23.25 18.0911 19.8645 23.25 15.375 23.25Z" fill="black"/>
<path d="M14.625 19.125H17.625V16.125H14.625V19.125ZM8.625 19.125V22.125V19.125ZM8.625 3.375V0.375V3.375ZM2.25 11.25H-0.75H2.25ZM16.125 21.6814H13.125V25.2873L16.6707 24.6313L16.125 21.6814ZM21.75 11.25L18.75 11.249V11.25H21.75ZM21.4125 9.20363L18.5701 10.1633L18.5717 10.1679L21.4125 9.20363ZM22.8375 8.7225L25.6802 7.76381L25.6799 7.76283L22.8375 8.7225ZM23.25 11.25L20.25 11.2449V11.25H23.25ZM15.375 20.25C15.9717 20.25 16.544 20.487 16.966 20.909L12.7233 25.1517C13.4266 25.8549 14.3804 26.25 15.375 26.25V20.25ZM16.966 20.909C17.388 21.331 17.625 21.9033 17.625 22.5H11.625C11.625 23.4946 12.0201 24.4484 12.7233 25.1517L16.966 20.909ZM17.625 22.5V19.125H11.625V22.5H17.625ZM14.625 16.125H8.625V22.125H14.625V16.125ZM8.625 16.125C7.33207 16.125 6.09209 15.6114 5.17786 14.6971L0.935214 18.9398C2.97467 20.9792 5.74077 22.125 8.625 22.125V16.125ZM5.17786 14.6971C4.26361 13.7829 3.75 12.5429 3.75 11.25H-2.25C-2.25 14.1342 -1.10424 16.9003 0.935214 18.9398L5.17786 14.6971ZM3.75 11.25C3.75 9.95707 4.26361 8.71709 5.17786 7.80286L0.935214 3.56021C-1.10424 5.59967 -2.25 8.36577 -2.25 11.25H3.75ZM5.17786 7.80286C6.09209 6.88861 7.33207 6.375 8.625 6.375V0.375C5.74077 0.375 2.97467 1.52076 0.935214 3.56021L5.17786 7.80286ZM8.625 6.375H15.375V0.375H8.625V6.375ZM15.375 6.375C14.7783 6.375 14.206 6.13795 13.784 5.71599L18.0267 1.47335C17.3234 0.770087 16.3696 0.375 15.375 0.375V6.375ZM13.784 5.71599C13.3621 5.29403 13.125 4.72173 13.125 4.125H19.125C19.125 3.13044 18.7299 2.17661 18.0267 1.47335L13.784 5.71599ZM13.125 4.125C13.125 3.52827 13.3621 2.95597 13.784 2.53401L18.0267 6.77665C18.7299 6.07339 19.125 5.11956 19.125 4.125H13.125ZM13.784 2.53401C14.206 2.11205 14.7783 1.875 15.375 1.875V7.875C16.3696 7.875 17.3234 7.47991 18.0267 6.77665L13.784 2.53401ZM15.375 1.875H8.625V7.875H15.375V1.875ZM8.625 1.875C6.1386 1.875 3.75403 2.86272 1.99587 4.62087L6.23852 8.86352C6.87145 8.23058 7.7299 7.875 8.625 7.875V1.875ZM1.99587 4.62087C0.237721 6.37903 -0.75 8.7636 -0.75 11.25H5.25C5.25 10.3549 5.60558 9.49645 6.23852 8.86352L1.99587 4.62087ZM-0.75 11.25C-0.75 13.7364 0.23772 16.121 1.99587 17.8791L6.23852 13.6365C5.60558 13.0036 5.25 12.1451 5.25 11.25H-0.75ZM1.99587 17.8791C3.75403 19.6373 6.1386 20.625 8.625 20.625V14.625C7.72989 14.625 6.87145 14.2694 6.23852 13.6365L1.99587 17.8791ZM8.625 20.625H15.375V14.625H8.625V20.625ZM15.375 20.625C14.7783 20.625 14.206 20.388 13.784 19.966L18.0267 15.7233C17.3234 15.0201 16.3696 14.625 15.375 14.625V20.625ZM13.784 19.966C13.362 19.544 13.125 18.9717 13.125 18.375H19.125C19.125 17.3804 18.7299 16.4266 18.0267 15.7233L13.784 19.966ZM13.125 18.375V21.6814H19.125V18.375H13.125ZM16.6707 24.6313C19.479 24.1118 21.5193 22.0408 22.7769 19.7262C24.0588 17.3668 24.75 14.3988 24.75 11.25H18.75C18.75 13.5702 18.2332 15.5211 17.5048 16.8617C16.7521 18.2471 15.9799 18.6573 15.5793 18.7314L16.6707 24.6313ZM24.75 11.251C24.7503 10.2267 24.5825 9.20927 24.2533 8.23931L18.5717 10.1679C18.6899 10.5161 18.7501 10.8813 18.75 11.249L24.75 11.251ZM24.2549 8.24395C24.4456 8.80884 24.4041 9.42634 24.1395 9.96062L18.7626 7.29809C18.3211 8.18984 18.2518 9.22048 18.5701 10.1633L24.2549 8.24395ZM24.1395 9.96062C23.875 10.4949 23.409 10.9022 22.8441 11.0929L20.9248 5.4082C19.982 5.72652 19.2042 6.40633 18.7626 7.29809L24.1395 9.96062ZM22.8441 11.0929C22.2792 11.2836 21.6617 11.2422 21.1274 10.9776L23.79 5.6007C22.8982 5.15912 21.8676 5.08988 20.9248 5.4082L22.8441 11.0929ZM21.1274 10.9776C20.5932 10.713 20.1859 10.2471 19.9951 9.68217L25.6799 7.76283C25.3615 6.82001 24.6817 6.04228 23.79 5.6007L21.1274 10.9776ZM19.9948 9.68119C20.1647 10.185 20.2509 10.7132 20.25 11.2449L26.25 11.2551C26.252 10.0681 26.0595 8.88865 25.6802 7.76381L19.9948 9.68119ZM20.25 11.25C20.25 14.2102 19.5125 16.6082 18.4879 18.1695C17.4722 19.7172 16.3445 20.25 15.375 20.25V26.25C18.895 26.25 21.7048 24.2034 23.5042 21.4614C25.2948 18.7329 26.25 15.1309 26.25 11.25H20.25Z" fill="#F8FAFC" mask="url(#path-1-inside-1_3126_1565)"/>
<mask id="path-3-inside-2_3126_1565" fill="white">
<path d="M12.75 10.125H7.5C7.30109 10.125 7.11032 10.046 6.96967 9.90535C6.82902 9.7647 6.75 9.57394 6.75 9.37502C6.75 9.17611 6.82902 8.98535 6.96967 8.84469C7.11032 8.70404 7.30109 8.62502 7.5 8.62502H12.75C12.9489 8.62502 13.1397 8.70404 13.2803 8.84469C13.421 8.98535 13.5 9.17611 13.5 9.37502C13.5 9.57394 13.421 9.7647 13.2803 9.90535C13.1397 10.046 12.9489 10.125 12.75 10.125ZM12 13.875H7.5C7.30109 13.875 7.11032 13.796 6.96967 13.6554C6.82902 13.5147 6.75 13.3239 6.75 13.125C6.75 12.9261 6.82902 12.7353 6.96967 12.5947C7.11032 12.454 7.30109 12.375 7.5 12.375H12C12.1989 12.375 12.3897 12.454 12.5303 12.5947C12.671 12.7353 12.75 12.9261 12.75 13.125C12.75 13.3239 12.671 13.5147 12.5303 13.6554C12.3897 13.796 12.1989 13.875 12 13.875ZM14.0306 14.8669C13.9256 14.8669 13.8218 14.8448 13.7259 14.8021C13.63 14.7595 13.5441 14.6971 13.4737 14.6191C13.4034 14.5411 13.3503 14.4493 13.3177 14.3495C13.2852 14.2496 13.2739 14.1441 13.2848 14.0396L13.6298 10.7021C13.6415 10.5864 13.68 10.475 13.7423 10.3766L18.9773 2.15215C19.2977 1.6487 19.805 1.29317 20.3876 1.16377C20.9702 1.03437 21.5803 1.1417 22.0838 1.46215C22.5872 1.7826 22.9427 2.28991 23.0721 2.87249C23.2015 3.45508 23.0942 4.0652 22.7738 4.56865L17.5395 12.7939C17.477 12.8921 17.3925 12.9744 17.2928 13.0343L14.4165 14.7593C14.3 14.8295 14.1666 14.8667 14.0306 14.8669ZM15.1031 11.034L14.9306 12.7024L16.3691 11.8399L21.5066 3.7639C21.5596 3.6808 21.5956 3.58809 21.6127 3.49106C21.6298 3.39403 21.6276 3.29458 21.6063 3.1984C21.5849 3.10221 21.5448 3.01117 21.4883 2.93049C21.4318 2.8498 21.3599 2.78104 21.2768 2.72815C21.1936 2.67522 21.1009 2.6392 21.0039 2.62212C20.9068 2.60505 20.8074 2.60727 20.7112 2.62866C20.615 2.65004 20.5239 2.69017 20.4433 2.74674C20.3626 2.80332 20.2939 2.87524 20.241 2.9584L15.1031 11.034Z"/>
</mask>
<path d="M12.75 10.125H7.5C7.30109 10.125 7.11032 10.046 6.96967 9.90535C6.82902 9.7647 6.75 9.57394 6.75 9.37502C6.75 9.17611 6.82902 8.98535 6.96967 8.84469C7.11032 8.70404 7.30109 8.62502 7.5 8.62502H12.75C12.9489 8.62502 13.1397 8.70404 13.2803 8.84469C13.421 8.98535 13.5 9.17611 13.5 9.37502C13.5 9.57394 13.421 9.7647 13.2803 9.90535C13.1397 10.046 12.9489 10.125 12.75 10.125ZM12 13.875H7.5C7.30109 13.875 7.11032 13.796 6.96967 13.6554C6.82902 13.5147 6.75 13.3239 6.75 13.125C6.75 12.9261 6.82902 12.7353 6.96967 12.5947C7.11032 12.454 7.30109 12.375 7.5 12.375H12C12.1989 12.375 12.3897 12.454 12.5303 12.5947C12.671 12.7353 12.75 12.9261 12.75 13.125C12.75 13.3239 12.671 13.5147 12.5303 13.6554C12.3897 13.796 12.1989 13.875 12 13.875ZM14.0306 14.8669C13.9256 14.8669 13.8218 14.8448 13.7259 14.8021C13.63 14.7595 13.5441 14.6971 13.4737 14.6191C13.4034 14.5411 13.3503 14.4493 13.3177 14.3495C13.2852 14.2496 13.2739 14.1441 13.2848 14.0396L13.6298 10.7021C13.6415 10.5864 13.68 10.475 13.7423 10.3766L18.9773 2.15215C19.2977 1.6487 19.805 1.29317 20.3876 1.16377C20.9702 1.03437 21.5803 1.1417 22.0838 1.46215C22.5872 1.7826 22.9427 2.28991 23.0721 2.87249C23.2015 3.45508 23.0942 4.0652 22.7738 4.56865L17.5395 12.7939C17.477 12.8921 17.3925 12.9744 17.2928 13.0343L14.4165 14.7593C14.3 14.8295 14.1666 14.8667 14.0306 14.8669ZM15.1031 11.034L14.9306 12.7024L16.3691 11.8399L21.5066 3.7639C21.5596 3.6808 21.5956 3.58809 21.6127 3.49106C21.6298 3.39403 21.6276 3.29458 21.6063 3.1984C21.5849 3.10221 21.5448 3.01117 21.4883 2.93049C21.4318 2.8498 21.3599 2.78104 21.2768 2.72815C21.1936 2.67522 21.1009 2.6392 21.0039 2.62212C20.9068 2.60505 20.8074 2.60727 20.7112 2.62866C20.615 2.65004 20.5239 2.69017 20.4433 2.74674C20.3626 2.80332 20.2939 2.87524 20.241 2.9584L15.1031 11.034Z" fill="black"/>
<path d="M14.0306 14.8669L14.0301 17.8669L14.0356 17.8669L14.0306 14.8669ZM13.2848 14.0396L16.2688 14.3486L16.2688 14.3481L13.2848 14.0396ZM13.6298 10.7021L16.6139 11.0106L16.6144 11.005L13.6298 10.7021ZM13.7423 10.3766L11.2114 8.76575L11.2076 8.77184L13.7423 10.3766ZM18.9773 2.15215L21.5081 3.76304L21.5081 3.76303L18.9773 2.15215ZM22.7738 4.56865L20.2429 2.95776L20.2428 2.95802L22.7738 4.56865ZM17.5395 12.7939L20.0704 14.4046L20.0705 14.4045L17.5395 12.7939ZM17.2928 13.0343L18.8357 15.607L18.8367 15.6065L17.2928 13.0343ZM14.4165 14.7593L12.8735 12.1865L12.8681 12.1898L14.4165 14.7593ZM15.1031 11.034L12.572 9.42366L12.1919 10.0211L12.119 10.7255L15.1031 11.034ZM14.9306 12.7024L11.9465 12.3939L11.3297 18.3594L16.4733 15.2754L14.9306 12.7024ZM16.3691 11.8399L17.9118 14.4129L18.5198 14.0483L18.9004 13.4501L16.3691 11.8399ZM21.5066 3.7639L18.9765 2.15189L18.9754 2.15367L21.5066 3.7639ZM21.2768 2.72815L19.6654 5.25869L19.6661 5.25914L21.2768 2.72815ZM20.241 2.9584L22.7722 4.56877L22.7727 4.56794L20.241 2.9584ZM12.75 7.12502H7.5V13.125H12.75V7.12502ZM7.5 7.12502C8.09674 7.12502 8.66904 7.36208 9.09099 7.78403L4.84835 12.0267C5.55161 12.7299 6.50544 13.125 7.5 13.125V7.12502ZM9.09099 7.78403C9.51295 8.20599 9.75 8.77828 9.75 9.37502H3.75C3.75 10.3696 4.14509 11.3234 4.84835 12.0267L9.09099 7.78403ZM9.75 9.37502C9.75 9.97176 9.51295 10.5441 9.09099 10.966L4.84835 6.72337C4.14509 7.42663 3.75 8.38046 3.75 9.37502H9.75ZM9.09099 10.966C8.66904 11.388 8.09674 11.625 7.5 11.625V5.62502C6.50544 5.62502 5.55161 6.02011 4.84835 6.72337L9.09099 10.966ZM7.5 11.625H12.75V5.62502H7.5V11.625ZM12.75 11.625C12.1533 11.625 11.581 11.388 11.159 10.966L15.4017 6.72337C14.6984 6.02011 13.7446 5.62502 12.75 5.62502V11.625ZM11.159 10.966C10.7371 10.5441 10.5 9.97176 10.5 9.37502H16.5C16.5 8.38047 16.1049 7.42664 15.4017 6.72337L11.159 10.966ZM10.5 9.37502C10.5 8.77829 10.7371 8.20599 11.159 7.78403L15.4017 12.0267C16.1049 11.3234 16.5 10.3696 16.5 9.37502H10.5ZM11.159 7.78403C11.581 7.36208 12.1533 7.12502 12.75 7.12502V13.125C13.7446 13.125 14.6984 12.7299 15.4017 12.0267L11.159 7.78403ZM12 10.875H7.5V16.875H12V10.875ZM7.5 10.875C8.09673 10.875 8.66903 11.1121 9.09099 11.534L4.84835 15.7767C5.55161 16.4799 6.50544 16.875 7.5 16.875V10.875ZM9.09099 11.534C9.51295 11.956 9.75 12.5283 9.75 13.125H3.75C3.75 14.1196 4.14509 15.0734 4.84835 15.7767L9.09099 11.534ZM9.75 13.125C9.75 13.7218 9.51295 14.2941 9.09099 14.716L4.84835 10.4734C4.14509 11.1766 3.75 12.1305 3.75 13.125H9.75ZM9.09099 14.716C8.66903 15.138 8.09673 15.375 7.5 15.375V9.37502C6.50544 9.37502 5.55161 9.77011 4.84835 10.4734L9.09099 14.716ZM7.5 15.375H12V9.37502H7.5V15.375ZM12 15.375C11.4033 15.375 10.831 15.138 10.409 14.716L14.6517 10.4734C13.9484 9.77011 12.9946 9.37502 12 9.37502V15.375ZM10.409 14.716C9.98705 14.2941 9.75 13.7218 9.75 13.125H15.75C15.75 12.1305 15.3549 11.1766 14.6517 10.4734L10.409 14.716ZM9.75 13.125C9.75 12.5283 9.98705 11.956 10.409 11.534L14.6517 15.7767C15.3549 15.0734 15.75 14.1196 15.75 13.125H9.75ZM10.409 11.534C10.831 11.1121 11.4033 10.875 12 10.875V16.875C12.9946 16.875 13.9484 16.4799 14.6517 15.7767L10.409 11.534ZM14.0312 11.8669C14.3462 11.867 14.6576 11.9331 14.9454 12.0612L12.5064 17.5431C12.986 17.7565 13.5051 17.8668 14.0301 17.8669L14.0312 11.8669ZM14.9454 12.0612C15.2332 12.1892 15.4909 12.3763 15.7018 12.6102L11.2457 16.628C11.5972 17.0179 12.0267 17.3297 12.5064 17.5431L14.9454 12.0612ZM15.7018 12.6102C15.9127 12.8442 16.0722 13.1198 16.1699 13.4192L10.4656 15.2797C10.6284 15.7788 10.8941 16.2381 11.2457 16.628L15.7018 12.6102ZM16.1699 13.4192C16.2675 13.7187 16.3012 14.0353 16.2688 14.3486L10.3007 13.7306C10.2466 14.2528 10.3028 14.7806 10.4656 15.2797L16.1699 13.4192ZM16.2688 14.3481L16.6139 11.0106L10.6457 10.3937L10.3007 13.7312L16.2688 14.3481ZM16.6144 11.005C16.5792 11.3522 16.4637 11.6865 16.2769 11.9815L11.2076 8.77184C10.8964 9.26337 10.7038 9.82056 10.6451 10.3993L16.6144 11.005ZM16.2731 11.9875L21.5081 3.76304L16.4464 0.541253L11.2114 8.76575L16.2731 11.9875ZM21.5081 3.76303C21.4013 3.9308 21.2322 4.04928 21.0381 4.0924L19.7371 -1.76486C18.3778 -1.46294 17.1941 -0.633401 16.4464 0.541262L21.5081 3.76303ZM21.0381 4.0924C20.844 4.13552 20.6406 4.09975 20.4729 3.99297L23.6946 -1.06867C22.52 -1.81635 21.0964 -2.06678 19.7371 -1.76486L21.0381 4.0924ZM20.4729 3.99297C20.3051 3.88618 20.1866 3.71713 20.1435 3.52299L26.0008 2.222C25.6988 0.862699 24.8693 -0.320991 23.6946 -1.06867L20.4729 3.99297ZM20.1435 3.52299C20.1004 3.32885 20.1361 3.12553 20.2429 2.95776L25.3046 6.17953C26.0523 5.00487 26.3027 3.58131 26.0008 2.222L20.1435 3.52299ZM20.2428 2.95802L15.0085 11.1833L20.0705 14.4045L25.3047 6.17927L20.2428 2.95802ZM15.0086 11.1832C15.196 10.8886 15.4495 10.6417 15.7488 10.4621L18.8367 15.6065C19.3356 15.307 19.758 14.8955 20.0704 14.4046L15.0086 11.1832ZM15.7498 10.4615L12.8735 12.1865L15.9595 17.332L18.8357 15.607L15.7498 10.4615ZM12.8681 12.1898C13.2175 11.9792 13.6177 11.8676 14.0257 11.8669L14.0356 17.8669C14.7156 17.8658 15.3825 17.6798 15.9649 17.3288L12.8681 12.1898ZM12.119 10.7255L11.9465 12.3939L17.9147 13.0109L18.0872 11.3426L12.119 10.7255ZM16.4733 15.2754L17.9118 14.4129L14.8264 9.26695L13.3879 10.1294L16.4733 15.2754ZM18.9004 13.4501L24.0379 5.37413L18.9754 2.15367L13.8379 10.2297L18.9004 13.4501ZM24.0367 5.3759C24.3014 4.96042 24.4817 4.49687 24.5672 4.01172L18.6582 2.9704C18.7095 2.67932 18.8177 2.40118 18.9765 2.15189L24.0367 5.3759ZM24.5672 4.01172C24.6527 3.52657 24.6418 3.02932 24.535 2.54839L18.6775 3.8484C18.6135 3.55984 18.6069 3.2615 18.6582 2.9704L24.5672 4.01172ZM24.535 2.54839C24.4283 2.06746 24.2278 1.61228 23.9451 1.20884L19.0315 4.65213C18.8619 4.41007 18.7416 4.13696 18.6775 3.8484L24.535 2.54839ZM23.9451 1.20884C23.6624 0.805398 23.303 0.461624 22.8874 0.197151L19.6661 5.25914C19.4168 5.10046 19.2011 4.8942 19.0315 4.65213L23.9451 1.20884ZM22.8881 0.197608C22.4725 -0.0670148 22.0088 -0.247151 21.5236 -0.332508L20.4841 5.57676C20.193 5.52554 19.9148 5.41746 19.6654 5.25869L22.8881 0.197608ZM21.5236 -0.332508C21.0384 -0.417866 20.5411 -0.40677 20.0602 -0.299856L21.3622 5.55717C21.0736 5.62132 20.7752 5.62797 20.4841 5.57676L21.5236 -0.332508ZM20.0602 -0.299856C19.5792 -0.192943 19.1241 0.00769126 18.7207 0.290589L22.1659 5.2029C21.9238 5.37264 21.6507 5.49302 21.3622 5.55717L20.0602 -0.299856ZM18.7207 0.290589C18.3173 0.573491 17.9736 0.9331 17.7093 1.34886L22.7727 4.56794C22.6141 4.81739 22.4079 5.03316 22.1659 5.2029L18.7207 0.290589ZM17.7099 1.34803L12.572 9.42366L17.6343 12.6444L22.7722 4.56877L17.7099 1.34803Z" fill="white" mask="url(#path-3-inside-2_3126_1565)"/>
<path d="M21.1338 6.49766C20.9915 6.49774 20.8521 6.45701 20.7322 6.38029L18.201 4.76966C18.0331 4.6629 17.9146 4.49383 17.8714 4.29966C17.8282 4.10549 17.8639 3.90212 17.9707 3.73429C18.0775 3.56645 18.2465 3.44791 18.4407 3.40473C18.6349 3.36155 18.8383 3.39727 19.0061 3.50404L21.5373 5.11654C21.6745 5.20368 21.7796 5.333 21.8369 5.48504C21.8942 5.63708 21.9006 5.80362 21.8551 5.9596C21.8096 6.11557 21.7146 6.25256 21.5846 6.34993C21.4545 6.4473 21.2963 6.49981 21.1338 6.49954V6.49766Z" fill="white"/>
</svg>
