<svg width="30" height="30" viewBox="0 0 30 30" fill="none" xmlns="http://www.w3.org/2000/svg">
<path fill-rule="evenodd" clip-rule="evenodd" d="M15 28.5C22.4558 28.5 28.5 22.456 28.5 15C28.5 7.54416 22.456 1.49997 15 1.49997C7.54416 1.49997 1.49997 7.54416 1.49997 15C1.49997 22.4558 7.54416 28.5 15 28.5ZM15 30C23.2842 30 30 23.2842 30 15C30 6.71567 23.2842 0 15 0C6.71567 0 0 6.71567 0 15C0 23.2842 6.71567 30 15 30Z" fill="#753CBD"/>
<path fill-rule="evenodd" clip-rule="evenodd" d="M18.8977 15L11.9999 10.4015V19.5987L18.8977 15ZM20.2913 14.1264C20.9148 14.5421 20.9148 15.4581 20.2913 15.8738L12.1322 21.3133C11.4345 21.7785 10.4998 21.2782 10.4998 20.4395V9.56065C10.4998 8.72203 11.4345 8.22183 12.1322 8.68704L20.2913 14.1264Z" fill="#753CBD"/>
</svg>
