<svg width="312" height="196" viewBox="0 0 312 196" fill="none" xmlns="http://www.w3.org/2000/svg">
<g filter="url(#filter0_di_130_1813)">
<path d="M205.914 45.5041C206.733 50.4377 213.203 48.6645 217.469 46.4332C217.667 46.3297 217.867 46.5944 217.724 46.7657C170.26 103.657 95.1847 85.8271 58.9811 67.7766C58.5378 67.5556 58.1974 68.2368 58.5997 68.5258C135.66 123.884 203.615 82.3059 228.521 53.7421C228.64 53.6061 228.857 53.7038 228.868 53.8838C229.653 66.6488 234.779 64.7139 237.287 61.9584C240.613 58.304 244.204 39.5128 245.696 30.4826C246.014 25.2391 241.575 24.4415 239.398 24.7945C233.852 26.6028 218.941 34.5793 209.74 39.5822C207.49 40.8059 205.495 42.977 205.914 45.5041Z" fill="#240672"/>
<path d="M205.914 45.5041C206.733 50.4377 213.203 48.6645 217.469 46.4332C217.667 46.3297 217.867 46.5944 217.724 46.7657C170.26 103.657 95.1847 85.8271 58.9811 67.7766C58.5378 67.5556 58.1974 68.2368 58.5997 68.5258C135.66 123.884 203.615 82.3059 228.521 53.7421C228.64 53.6061 228.857 53.7038 228.868 53.8838C229.653 66.6488 234.779 64.7139 237.287 61.9584C240.613 58.304 244.204 39.5128 245.696 30.4826C246.014 25.2391 241.575 24.4415 239.398 24.7945C233.852 26.6028 218.941 34.5793 209.74 39.5822C207.49 40.8059 205.495 42.977 205.914 45.5041Z" fill="url(#paint0_radial_130_1813)" fill-opacity="0.7"/>
<path d="M205.914 45.5041C206.733 50.4377 213.203 48.6645 217.469 46.4332C217.667 46.3297 217.867 46.5944 217.724 46.7657C170.26 103.657 95.1847 85.8271 58.9811 67.7766C58.5378 67.5556 58.1974 68.2368 58.5997 68.5258C135.66 123.884 203.615 82.3059 228.521 53.7421C228.64 53.6061 228.857 53.7038 228.868 53.8838C229.653 66.6488 234.779 64.7139 237.287 61.9584C240.613 58.304 244.204 39.5128 245.696 30.4826C246.014 25.2391 241.575 24.4415 239.398 24.7945C233.852 26.6028 218.941 34.5793 209.74 39.5822C207.49 40.8059 205.495 42.977 205.914 45.5041Z" fill="#5EA7FA"/>
</g>
<defs>
<filter id="filter0_di_130_1813" x="0.420654" y="0.722168" width="311.291" height="195.032" filterUnits="userSpaceOnUse" color-interpolation-filters="sRGB">
<feFlood flood-opacity="0" result="BackgroundImageFix"/>
<feColorMatrix in="SourceAlpha" type="matrix" values="0 0 0 0 0 0 0 0 0 0 0 0 0 0 0 0 0 0 127 0" result="hardAlpha"/>
<feOffset dx="4" dy="38"/>
<feGaussianBlur stdDeviation="31"/>
<feColorMatrix type="matrix" values="0 0 0 0 0.458824 0 0 0 0 0.231373 0 0 0 0 0.741176 0 0 0 0.4 0"/>
<feBlend mode="normal" in2="BackgroundImageFix" result="effect1_dropShadow_130_1813"/>
<feBlend mode="normal" in="SourceGraphic" in2="effect1_dropShadow_130_1813" result="shape"/>
<feColorMatrix in="SourceAlpha" type="matrix" values="0 0 0 0 0 0 0 0 0 0 0 0 0 0 0 0 0 0 127 0" result="hardAlpha"/>
<feOffset dx="-3" dy="-4"/>
<feGaussianBlur stdDeviation="3.5"/>
<feComposite in2="hardAlpha" operator="arithmetic" k2="-1" k3="1"/>
<feColorMatrix type="matrix" values="0 0 0 0 1 0 0 0 0 1 0 0 0 0 1 0 0 0 0.15 0"/>
<feBlend mode="normal" in2="shape" result="effect2_innerShadow_130_1813"/>
</filter>
<radialGradient id="paint0_radial_130_1813" cx="0" cy="0" r="1" gradientUnits="userSpaceOnUse" gradientTransform="translate(106.215 89.89) rotate(-10.0877) scale(170.253 118.633)">
<stop stop-color="white" stop-opacity="0.59"/>
<stop offset="0.514203" stop-color="white" stop-opacity="0"/>
<stop offset="1" stop-color="white" stop-opacity="0"/>
</radialGradient>
</defs>
</svg>
