<svg width="83" height="93" viewBox="0 0 83 93" fill="none" xmlns="http://www.w3.org/2000/svg">
<path d="M8.99569 19.4613C7.4876 19.8309 6.56344 20.3353 5.9854 21.0334C5.16325 21.9297 5.24857 22.743 6.0479 23.3809C13.0626 29.7244 19.2051 49.9337 21.9562 57.0906C22.6426 58.7528 25.2847 58.6845 26.2539 56.5702C26.8603 54.0354 22.3337 32.7353 18.375 26.1294C16.8151 23.5456 14.4046 18.6686 8.99569 19.4613Z" fill="#753CBD"/>
<path d="M75.4665 69.4971C75.5615 70.618 75.4342 71.3676 75.0996 71.9228C74.6877 72.691 74.1262 72.8168 73.5196 72.4115C67.7008 69.0241 52.8312 69.3751 47.4351 69.1034C46.1711 69.0077 45.6186 67.1755 46.8091 66.0303C48.3627 65.0397 63.5941 63.3307 68.8963 64.5575C70.9722 65.0449 74.7708 65.5985 75.4665 69.4971Z" fill="#753CBD"/>
<path d="M53.2843 26.0499C54.664 26.5339 55.6041 27.3733 55.4903 28.2069C54.3205 40.1006 47.0283 50.9563 39.5411 59.7044C39.391 59.9439 39.088 60.1591 38.7166 60.3025C38.4217 60.4581 37.9931 60.4507 37.5479 60.2784C37.0642 60.0997 36.7854 59.8523 36.9024 59.5667C39.0543 53.2365 43.3055 22.5618 53.2843 26.0499Z" fill="#753CBD"/>
</svg>
