<svg width="13" height="12" viewBox="0 0 13 12" fill="none" xmlns="http://www.w3.org/2000/svg">
<path d="M6.02447 0.968896C6.17415 0.50824 6.82585 0.508241 6.97553 0.968896L7.95934 3.99676C8.02628 4.20277 8.21826 4.34225 8.43487 4.34225H11.6186C12.1029 4.34225 12.3043 4.96206 11.9124 5.24676L9.33679 7.11808C9.16155 7.24541 9.08822 7.47109 9.15516 7.6771L10.139 10.705C10.2886 11.1656 9.7614 11.5487 9.36955 11.264L6.79389 9.39266C6.61865 9.26534 6.38135 9.26534 6.20611 9.39266L3.63045 11.264C3.23859 11.5487 2.71136 11.1656 2.86103 10.705L3.84484 7.6771C3.91178 7.47109 3.83845 7.24541 3.66321 7.11808L1.08755 5.24676C0.695696 4.96206 0.897084 4.34225 1.38145 4.34225H4.56513C4.78174 4.34225 4.97372 4.20277 5.04066 3.99676L6.02447 0.968896Z" fill="#FD843C"/>
</svg>
