<svg width="24" height="24" viewBox="0 0 24 24" fill="none" xmlns="http://www.w3.org/2000/svg">
<path d="M5.37436 23.8475C5.44221 23.7939 5.50921 23.7392 5.57531 23.6834L5.12523 22.2009C5.12492 22.2011 5.1246 22.2014 5.12428 22.2017C5.08521 22.2375 5.04596 22.273 5.00653 22.3084C5.09332 22.385 5.18105 22.4606 5.26971 22.5351L5.27165 22.5368C5.3257 22.5824 5.38047 22.6271 5.43594 22.6709L5.32891 22.8063L5.09099 23.1072L5.0901 23.1083L4.94261 23.2948L5.37436 23.8475ZM5.37436 23.8475L4.94004 23.2981L4.50556 23.8475C4.62962 23.9445 4.78253 23.9971 4.93996 23.9971C5.09739 23.9971 5.2503 23.9445 5.37436 23.8475ZM5.08641 23.1039L4.93996 23.2914L4.79342 23.1038L4.79261 23.1028L4.55656 22.8006L4.45098 22.6654C4.50564 22.6228 4.56526 22.5877 4.62822 22.5608C4.6291 22.5605 4.62998 22.5601 4.63086 22.5597C4.69038 22.5346 4.75284 22.5167 4.81687 22.5067C4.85739 22.5003 4.89854 22.4971 4.93996 22.4971C4.98148 22.4971 5.02273 22.5004 5.06334 22.5067C5.12727 22.5168 5.18963 22.5346 5.24906 22.5597C5.24986 22.56 5.25065 22.5604 5.25145 22.5607C5.3145 22.5876 5.37421 22.6227 5.42893 22.6654L5.32359 22.8003L5.0873 23.1028L5.08641 23.1039Z" fill="white" stroke="#F8FAFC" stroke-width="3"/>
</svg>
