<svg width="120" height="120" viewBox="0 0 120 120" fill="none" xmlns="http://www.w3.org/2000/svg">
<rect width="120" height="120" rx="10.6667" fill="#4D9EFA"/>
<path d="M30.666 90.6667C36.867 97.2578 44.5587 101.275 53.3327 102.667C53.8092 102.744 54.2483 102.924 54.666 102.667C55.4132 102.21 55.4816 101.097 55.9993 100C57.4604 96.9164 57.8545 93.4763 55.9993 90.6667" stroke="#FEC8A3" stroke-width="2.66667"/>
<path d="M56 92C59.39 94.0493 63.1912 95.3797 66.6667 94.6667C70.1719 93.9449 72.5929 91.5387 74.6667 88" stroke="#D5A99D" stroke-width="2.66667"/>
<path d="M74.6669 88V101.333C74.6667 101.358 74.6566 101.311 74.6669 101.333C74.6772 101.355 74.6486 101.319 74.6669 101.333C74.6851 101.347 74.645 101.331 74.6669 101.333C74.6887 101.336 74.6467 101.343 74.6669 101.333C80.2065 98.8877 85.2728 95.5199 89.3335 90.6667C89.4007 90.5842 89.3489 90.7301 89.3335 90.6667" stroke="#ACCDCB" stroke-width="2.66667"/>
<path d="M90.6662 89.3335C90.825 89.2694 90.559 89.4596 90.6662 89.3335C96.0787 83.0061 100.007 74.9485 101.333 66.6668C102.117 61.7731 101.02 56.8478 99.9995 52.0002C98.0009 42.4871 93.9285 34.3235 86.6662 28.0002C80.8052 22.8982 74.2004 19.8923 66.6662 18.6668C64.8283 18.3685 62.1113 18.6869 59.9995 18.6668C57.5543 18.6408 55.4546 18.3725 53.3329 18.6668C50.5086 19.0573 48.1274 20.2342 45.3329 21.3335C37.9595 24.2289 31.3423 28.4836 26.6662 34.6668C25.4793 36.2387 24.98 38.2181 23.9995 40.0002C19.6569 47.8974 17.6599 56.317 18.6662 65.3335C19.7618 75.1429 23.5647 83.5826 30.6662 90.6668" stroke="#FEF3F0" stroke-width="2.66667"/>
<path d="M89.3327 89.3334L74.666 82.6667" stroke="#ABC2BC" stroke-width="2.66667"/>
<path d="M74.6671 84C73.1482 83.5215 72.1157 81.9096 72.0005 80C71.9117 78.5296 72.0552 77.4748 72.0005 76" stroke="#D59E8F" stroke-width="2.66667"/>
<path d="M72 76.0001V74.6667" stroke="#C59089" stroke-width="2.66667"/>
<path d="M72 74.6667C76.3616 71.6537 79.3909 66.9918 80 61.3333C80.0042 61.2924 79.9786 61.3685 80 61.3333C80.0214 61.2982 79.9654 61.356 80 61.3333C80.0346 61.3107 79.959 61.3391 80 61.3333C80.041 61.3276 79.9604 61.3211 80 61.3333C80.217 61.4012 80.9571 61.5011 81.3333 61.3333C82.9597 60.6125 83.5939 58.9007 84 57.3333C84.2687 56.2971 84.1752 55.5632 84 54.6667C83.7989 53.6424 83.5784 52.6848 82.6667 52C81.6932 51.2672 79.7576 51.6067 78.6667 52C78.6379 52.0102 78.6969 52.0044 78.6667 52C78.6365 51.9956 78.6914 52.018 78.6667 52C78.642 51.982 78.6802 52.0274 78.6667 52C78.6532 51.9726 78.6659 52.0306 78.6667 52C78.7702 48.3841 78.7961 44.9473 78.6667 41.3333C78.6567 41.0358 78.7881 40.2636 78.6667 40" stroke="#D59E8F" stroke-width="2.66667"/>
<path d="M78.6671 40.0001C78.6611 39.8499 78.4917 40.0981 78.6671 40.0001C80.3777 39.0511 82.7025 37.7438 84.0005 36.0001C84.6305 35.1533 85.0467 34.3304 85.3338 33.3334C85.6568 32.2155 85.571 30.2345 85.3338 29.3334C84.945 27.8692 84.3698 28.0731 82.6671 28.0001C82.6611 28.0001 81.9937 27.925 81.3338 28.0001C80.8294 28.0585 80.4112 27.013 80.0005 26.6668C78.4593 25.3674 76.1285 25.4946 74.6671 26.6668C74.2126 27.0339 74.8186 27.9688 74.6671 28.0001C74.2664 28.0835 73.6747 27.111 73.3338 26.6668C72.7078 25.8512 71.7736 26.381 70.6671 26.6668C70.1767 26.7919 69.7704 26.4227 69.3338 26.6668C69.0607 26.8211 69.2201 26.9692 69.3338 26.6668C69.6488 25.845 69.6628 24.6404 69.3338 24.0001C69.0626 23.4724 68.7062 22.9817 68.0005 22.6668C67.1073 22.2705 65.0671 22.5375 64.0005 22.6668C62.5989 22.8378 62.4822 23.4411 61.3338 24.0001C61.3258 24.0043 60.4411 23.7561 60.0005 24.0001C58.7364 24.6967 57.6692 25.5483 56.0005 25.3334C54.8521 25.1854 53.9518 24.4866 53.3338 25.3334C53.0248 25.7568 52.0922 27.1262 52.0005 28.0001C51.9267 28.6926 52.0662 28.641 52.0005 29.3334C51.9526 29.8299 52.1879 30.4832 52.0005 30.6668C51.6815 30.9796 51.1955 31.0255 50.6671 30.6668C49.7739 30.0598 48.5487 29.943 48.0005 30.6668C47.7851 30.9504 48.0164 31.5996 48.0005 32.0001C47.9825 32.4006 47.8928 32.983 48.0005 33.3334C48.4351 34.7309 49.5108 36.3719 50.6671 37.3334" stroke="#947F85" stroke-width="2.66667"/>
<path d="M50.6659 36C49.5388 36.7244 48.3838 37.3904 47.9992 38.6667C47.7538 39.4794 48.0402 41.3162 47.9992 42.6667C47.9154 45.4258 47.9645 47.6868 47.9992 50.6667C47.9998 50.7031 48.0156 50.6339 47.9992 50.6667C47.9829 50.6995 48.029 50.6445 47.9992 50.6667C47.9695 50.6889 48.0362 50.6597 47.9992 50.6667C47.9623 50.6736 48.0355 50.6765 47.9992 50.6667C46.6123 50.2673 44.9116 51.2234 43.9992 52C43.2526 52.6381 42.893 53.4888 42.6659 54.6667C42.4675 55.7001 42.3079 56.3441 42.6659 57.3333C43.0546 58.4109 44.5716 59.4903 45.3326 60C46.1979 60.5779 46.7043 60.1565 47.9992 60C48.0352 59.9958 47.9646 59.99 47.9992 60C48.0339 60.01 47.9716 59.9774 47.9992 60C48.0269 60.0226 47.9832 59.9686 47.9992 60C48.0153 60.0314 47.9974 59.965 47.9992 60C48.2304 64.1397 50.5832 67.9196 53.3326 70.6667C53.6783 71.0118 53.3449 71.5605 53.3326 72C53.3223 72.4234 53.3326 73.3173 53.3326 73.3333C53.4819 75.4323 53.4983 76.9731 53.3326 78.6667C53.2017 80.0031 51.8769 80.5748 50.6659 81.3333C50.3959 81.5019 50.2777 82.163 49.3326 82.6667" stroke="#D59E8F" stroke-width="2.66667"/>
<path d="M49.3331 84C48.3225 84.168 47.4595 84.672 46.6664 85.3333C46.6302 85.3634 46.7122 85.3218 46.6664 85.3333C46.6207 85.3449 46.7135 85.3423 46.6664 85.3333C45.9019 85.1866 44.4532 84.7826 43.9998 85.3333C43.9319 85.4163 44.0969 86.6256 43.9998 86.6667C43.9027 86.7077 44.1045 86.6766 43.9998 86.6667C43.1681 86.588 43.1097 86.0074 42.6664 86.6667C42.6021 86.7628 41.4425 86.6407 41.3331 86.6667C41.2237 86.6926 41.4308 86.7243 41.3331 86.6667C41.1257 86.5433 41.6625 86.5072 41.3331 86.6667C38.1325 88.219 33.9219 90.5774 30.6664 92C30.5546 92.0489 30.7661 91.8363 30.6664 92" stroke="#FDBD95" stroke-width="2.66667"/>
<path d="M78.666 38.6669C78.5598 38.6121 78.7604 38.6249 78.666 38.6669C75.9876 39.8781 72.2668 40.6067 69.3327 40.0002C66.4694 39.4084 64.552 38.2926 62.666 37.3336C60.6483 36.3088 58.3101 35.8632 55.9993 36.0002C53.905 36.1245 52.6562 35.9217 51.9993 36.0002C51.3936 36.0733 51.0849 36.3017 50.666 36.0002" stroke="#6C3533" stroke-width="2.66667"/>
<path d="M73.3331 74.6669C72.0187 75.3955 70.7685 75.599 69.3331 76.0002C67.9059 76.3994 66.832 77.3934 65.3331 77.3335C61.6933 77.1878 57.6602 75.5074 54.6664 73.3335C54.6367 73.3119 54.6962 73.3414 54.6664 73.3335C54.6366 73.3256 54.6878 73.3254 54.6664 73.3335C54.6069 73.3535 54.5659 73.2377 54.6664 73.3335C56.7047 75.3218 58.694 76.3893 61.3331 77.3335C63.1499 77.9823 65.0895 78.8545 66.6664 78.6669C68.7088 78.4253 70.3285 77.3377 71.9997 76.0002C72.0323 75.9741 71.9816 76.0427 71.9997 76.0002C72.0178 75.9577 71.9997 76.0507 71.9997 76.0002C71.9997 75.7926 73.1055 75.9303 73.3331 76.0002C73.5381 76.0641 73.2387 76.1639 73.3331 76.0002" stroke="#9C4637" stroke-width="2.66667"/>
<path d="M74.666 82.6667C74.795 84.0884 74.7692 85.4217 74.666 86.6667" stroke="#83786A" stroke-width="2.66667"/>
<path d="M55.9987 92C55.3364 91.4207 54.1819 90.3506 53.332 89.3333C51.5421 87.1952 50.4744 85.5986 49.332 84" stroke="#D57342" stroke-width="2.66667"/>
<path d="M34.6663 37.3336C35.0567 37.5256 35.8101 37.6863 35.9996 37.3336C36.8503 35.76 37.9172 33.6091 38.6663 32.0002C38.7927 31.7279 38.6325 32.2158 38.6663 32.0002C38.8107 31.1302 38.0776 30.1496 37.333 30.6669C37.1209 30.8158 37.5248 31.7572 37.333 32.0002C36.2093 33.4249 35.1469 34.3169 34.6663 36.0002C34.5287 36.4823 34.2602 37.1317 34.6663 37.3336Z" stroke="#FABE99" stroke-width="2.66667"/>
<path d="M34.6653 88.0001C35.3374 88.1473 34.6422 87.4926 34.6653 86.6668C34.9416 76.7754 35.6742 67.2207 35.9987 57.3334C36.0218 56.6691 36.3944 56.1493 35.9987 56.0001C35.6849 55.8795 34.9969 55.7589 34.6653 56.0001C34.3623 56.2188 33.48 56.9328 33.332 57.3334C33.1555 57.8097 33.3427 58.1517 33.332 58.6668C33.1484 67.3807 33.2357 76.6194 33.332 85.3334C33.3427 86.2369 33.1609 87.0905 33.332 88.0001C33.3527 88.111 33.2612 87.9205 33.332 88.0001C33.4028 88.0797 34.5678 87.9781 34.6653 88.0001Z" stroke="#FABE99" stroke-width="2.66667"/>
<path d="M30.6661 81.3335C30.9738 81.6281 31.9619 81.8605 31.9995 81.3335C32.0468 80.6501 31.9981 79.3442 31.9995 78.6668C32.0064 73.2297 31.9173 68.0999 31.9995 62.6668C32.0106 61.9393 32.1401 60.6895 31.9995 60.0001C31.9132 59.5692 32.1568 59.6454 31.9995 60.0001C31.7893 60.4771 30.6912 60.7683 30.6661 61.3335C30.4629 65.7865 30.733 70.2037 30.6661 74.6668C30.6272 77.232 30.5478 79.2586 30.6661 80.0001C30.7385 80.4591 30.4225 81.101 30.6661 81.3335Z" stroke="#FABE99" stroke-width="2.66667"/>
<path d="M37.3326 62.6669C37.2112 62.889 37.3565 63.7379 37.3326 64.0002C37.0732 67.0189 37.305 70.3128 37.3326 73.3336C37.3344 73.4459 37.2775 73.2619 37.3326 73.3336C37.5331 73.598 38.4452 73.5684 38.6659 73.3336C38.7246 73.2722 38.6517 73.4461 38.6659 73.3336C39.0448 70.1435 38.7211 65.8844 38.6659 62.6669C38.6622 62.43 38.7616 62.7727 38.6659 62.6669C38.4801 62.4617 37.5496 62.2755 37.3326 62.6669Z" stroke="#FCC19D" stroke-width="2.66667"/>
<path d="M29.3325 84.0001C29.734 84.4773 30.4292 84.5715 30.6659 84.0001C31.0124 83.1626 30.7419 82.259 30.6659 81.3335C30.5729 80.2195 30.7123 76.9781 30.6659 72.0001C30.6574 71.1565 30.1799 70.5255 29.3325 70.6668C28.8549 70.7467 28.0647 71.5353 27.9992 72.0001C27.5554 75.0901 27.5702 78.2067 27.9992 81.3335C28.1133 82.1628 27.9548 82.5091 27.9992 82.6668C28.1387 83.1603 28.9859 83.5906 29.3325 84.0001Z" stroke="#FDBD95" stroke-width="2.66667"/>
<path d="M65.3334 44.0002C68.5713 44.1351 71.8586 44.3166 74.6668 45.3335C74.8666 45.4059 74.4569 45.2891 74.6668 45.3335C75.3283 45.4684 76.158 45.5935 76.0001 45.3335C75.9614 45.2683 76.1002 45.3684 76.0001 45.3335C73.4838 44.4236 70.6843 43.0519 68.0001 42.6668C66.1953 42.4085 64.3816 42.6043 62.6668 42.6668C60.894 42.7327 59.0723 42.3312 57.3334 42.6668C56.1822 42.8873 55.6921 43.523 54.6668 44.0002C54.4089 44.1203 53.5393 45.0324 53.3334 45.3335C53.1476 45.6067 52.9857 45.4602 53.3334 45.3335C57.1069 43.9464 61.2122 43.8291 65.3334 44.0002Z" stroke="#A24A38" stroke-width="2.66667"/>
<path d="M70.6662 48.0003C70.7404 48.0724 70.5638 47.9588 70.6662 48.0003C70.7686 48.0418 71.8857 47.9962 71.9995 48.0003C74.5567 48.0893 76.7137 48.7191 78.6662 49.3336C78.6856 49.3396 78.6457 49.3342 78.6662 49.3336C78.6867 49.3331 78.6477 49.3406 78.6662 49.3336C78.6847 49.3267 78.6526 49.3459 78.6662 49.3336C78.6798 49.3214 78.6596 49.3494 78.6662 49.3336C78.8169 48.9845 78.8393 48.3495 78.6662 48.0003C78.6306 47.9272 78.7573 48.0453 78.6662 48.0003C76.6873 47.052 74.2635 46.6191 71.9995 46.667C71.5577 46.6755 70.8963 46.4958 70.6662 46.667C70.2611 46.9682 70.2325 47.5758 70.6662 48.0003Z" stroke="#67352C" stroke-width="2.66667"/>
<path d="M61.3322 46.6667C61.2481 46.5633 61.4616 46.7223 61.3322 46.6667C61.2029 46.6111 60.1424 46.6611 59.9989 46.6667C58.0211 46.7415 56.2004 47.5668 54.6656 48C53.9795 48.1931 53.6282 47.6973 53.3322 48C52.9872 48.3497 52.9892 48.9541 53.3322 49.3334C53.3585 49.3619 53.2903 49.3231 53.3322 49.3334C53.3741 49.3436 53.2889 49.3449 53.3322 49.3334C55.3512 48.7888 57.8956 48.1479 59.9989 48C60.4458 47.9687 61.1303 48.1201 61.3322 48C61.7674 47.7373 61.7047 47.119 61.3322 46.6667Z" stroke="#65332D" stroke-width="2.66667"/>
<path d="M66.6654 52C66.1671 54.9196 67.2418 57.1615 67.9987 60C68.0057 60.0243 67.8945 61.0312 67.9987 61.3333C68.1949 61.895 67.0907 62.2814 66.6654 62.6667C66.1324 63.1512 66.0056 63.6938 65.332 64C65.2105 64.0547 65.2036 63.9676 65.332 64C66.2105 64.2169 67.1567 64.3021 67.9987 64C68.4709 63.8297 69.1359 63.062 69.332 62.6667C69.5386 62.2429 69.3268 61.9152 69.332 61.3333" stroke="#964332" stroke-width="2.66667"/>
<path d="M69.332 60.0002C69.6315 59.6762 70.0759 59.7869 70.6654 60.0002" stroke="#A44D38" stroke-width="2.66667"/>
<path d="M70.666 61.3336C71.0432 63.9905 72.2651 65.5108 74.666 65.3336C76.3321 65.2112 78.0012 64.2412 78.666 62.6669C78.9343 62.0317 78.7185 61.8801 78.666 61.3336C78.6096 60.7363 79.0296 59.2409 78.666 58.6669C77.9798 57.5864 77.0997 57.4876 75.9993 57.3336C73.8492 57.0318 71.4883 57.8962 70.666 60.0002" stroke="#9F4837" stroke-width="2.66667"/>
<path d="M70.6655 60.0001C70.5822 60.0722 70.733 60.0227 70.6655 60.0001C70.6316 59.9889 70.6799 60.0448 70.6655 60.0001C70.6511 59.9553 70.6526 60.0542 70.6655 60.0001C70.8481 59.2423 70.737 57.8544 70.6655 57.3334C70.4889 56.0443 70.5802 55.4884 70.6655 54.6667" stroke="#A44D38" stroke-width="2.66667"/>
<path d="M70.666 54.6668C71.4412 53.8693 72.3301 53.4249 73.3327 53.3335" stroke="#964332" stroke-width="2.66667"/>
<path d="M73.332 53.3333C73.4984 55.0646 74.6959 55.2459 75.9987 54.6667C76.1379 54.6049 75.9162 54.8003 75.9987 54.6667C76.0812 54.533 76.0013 53.4929 75.9987 53.3333C75.9886 52.7005 76.2767 52.4999 75.9987 52" stroke="#7C3A2C" stroke-width="2.66667"/>
<path d="M74.666 53.3335L77.3327 54.6669C77.3692 54.6921 77.2997 54.6577 77.3327 54.6669C77.3657 54.676 77.3132 54.6766 77.3327 54.6669C77.3919 54.6389 77.39 54.7636 77.3327 54.6669C76.3728 53.0907 75.1103 52.0604 73.3327 52.0002C72.1062 51.9594 71.1183 51.897 70.666 52.0002" stroke="#964332" stroke-width="2.66667"/>
<path d="M70.666 50.6669C70.4186 50.6542 70.8378 50.8731 70.666 50.6669C70.4998 50.4664 69.6448 50.6726 69.3327 50.6669C68.6919 50.6556 68.04 49.6343 67.9993 49.3336C67.9933 49.2947 68.0191 49.3634 67.9993 49.3336C67.9796 49.3038 68.0285 49.3479 67.9993 49.3336C67.787 49.2305 68.1545 49.1528 67.9993 49.3336C67.6946 49.6866 67.0058 50.2927 66.666 50.6669" stroke="#A44D38" stroke-width="2.66667"/>
<path d="M71.9993 52.0001C72.0348 52.3358 71.7184 53.0888 71.9993 53.3335C72.0584 53.3842 71.9713 53.2638 71.9993 53.3335C72.0274 53.4031 72.0083 53.2597 71.9993 53.3335C71.9904 53.4072 72.0434 53.2712 71.9993 53.3335C71.9553 53.3958 72.0691 53.2958 71.9993 53.3335C71.4445 53.6323 70.8289 54.2749 70.666 54.6668" stroke="#8E3C2E" stroke-width="2.66667"/>
<path d="M70.666 58.6667V60.0001" stroke="#974133" stroke-width="2.66667"/>
<path d="M69.3334 61.3333C67.3709 58.5753 66.4628 55.4642 66.6668 52" stroke="#8E3C2E" stroke-width="2.66667"/>
<path d="M75.9987 52.0002C74.6981 51.5163 73.8092 52.0969 73.332 53.3335" stroke="#652922" stroke-width="2.66667"/>
<path d="M55.9993 53.3333C55.9217 54.0544 55.5589 54.3847 55.9993 54.6667C56.3712 54.9024 56.9287 54.8238 57.3326 54.6667C57.7525 54.5026 58.5701 53.9134 58.666 53.3333C58.7686 52.7139 58.6568 52.3513 58.666 52" stroke="#7A3E33" stroke-width="2.66667"/>
<path d="M58.6671 52.0002C59.7222 51.9812 60.6108 52.6784 61.3337 53.3335C61.5113 53.4934 61.4069 53.5364 61.3337 53.3335C60.9096 52.1454 59.9353 50.7923 58.6671 50.6668C57.8313 50.5843 56.8946 50.4983 56.0004 50.6668C54.6465 50.9196 53.8498 52.0612 53.3337 53.3335C53.2543 53.5295 53.0935 53.4126 53.3337 53.3335L56.0004 52.0002" stroke="#984534" stroke-width="2.66667"/>
<path d="M58.6667 52.0001C57.4057 51.4707 56.5168 52.0716 56 53.3334" stroke="#662F2B" stroke-width="2.66667"/>
<path d="M81.3327 53.3336C80.4817 53.0677 80.1481 53.9693 79.9994 54.6669C79.9975 54.6849 80.0719 55.0727 79.9994 56.0002C79.9306 56.8957 79.8898 57.8653 79.9994 58.6669C80.0663 59.1606 80.8812 58.7708 81.3327 58.6669C82.2879 58.449 82.4877 58.1871 82.6661 57.3336C82.7627 56.8758 82.7292 56.5999 82.6661 56.0002C82.6103 55.4785 82.9132 53.8413 82.6661 53.3336C82.6113 53.2234 81.4227 53.4123 81.3327 53.3336C81.2428 53.2548 81.4439 53.3687 81.3327 53.3336Z" stroke="#A64A39" stroke-width="2.66667"/>
<path d="M46.6669 57.3335C47.2175 57.6757 47.4379 57.5561 48.0002 57.3335C48.4149 57.1698 49.1321 56.4362 49.3336 56.0002C49.7084 55.1797 49.7014 54.2 49.3336 53.3335C49.3157 53.2915 49.3704 53.3667 49.3336 53.3335C49.2968 53.3003 49.3836 53.3527 49.3336 53.3335C48.5322 53.0281 47.3393 53.0686 46.6669 53.3335C46.0249 53.5855 45.5093 54.0359 45.3336 54.6668C45.0899 55.5388 45.725 56.7522 46.6669 57.3335Z" stroke="#A24A38" stroke-width="2.66667"/>
<path d="M58.6658 61.3335C58.6049 60.8128 58.9217 59.1214 58.6658 58.6668C58.4099 58.2122 57.7445 58.9861 57.3325 58.6668C56.9205 58.3476 56.5045 57.4688 55.9992 57.3335C55.4938 57.1982 55.1876 57.2643 54.6658 57.3335C53.6121 57.4733 52.6573 57.8244 51.9992 58.6668C51.341 59.5093 50.5428 60.2819 50.6658 61.3335C50.7267 61.8542 50.4099 63.5456 50.6658 64.0002C50.9217 64.4547 51.5872 63.6809 51.9992 64.0002C52.4111 64.3194 52.8272 65.1982 53.3325 65.3335C53.8378 65.4688 54.1441 65.4027 54.6658 65.3335C55.7195 65.1937 56.6744 64.8426 57.3325 64.0002C57.9906 63.1577 58.7888 62.3851 58.6658 61.3335Z" stroke="#9F4837" stroke-width="2.66667"/>
<path d="M62.666 69.3336H63.9993C64.0384 69.3415 63.973 69.3066 63.9993 69.3336C64.0257 69.3606 63.9957 69.2978 63.9993 69.3336C64.0118 69.4636 63.8496 70.5774 63.9993 70.6669C64.8877 71.2044 65.7839 71.1834 66.666 70.6669C66.924 70.5159 66.9781 70.6792 66.666 70.6669C66.2333 70.6494 65.7696 70.6002 65.3327 70.6669C64.9686 70.7214 65.6135 69.4759 65.3327 69.3336C65.2391 69.2862 65.2245 69.3652 65.3327 69.3336C66.0629 69.1141 66.3643 69.2493 66.666 69.3336C67.3713 69.5321 67.5916 69.7517 67.9993 69.3336" stroke="#973D32" stroke-width="2.66667"/>
<path d="M67.9998 69.3334C69.7951 68.6079 71.1305 66.9593 71.9998 65.3334C72.117 65.1165 72.244 65.2835 71.9998 65.3334C67.8173 66.2049 62.8821 66.2126 58.6665 65.3334C58.2054 65.2375 58.475 64.9112 58.6665 65.3334C59.5084 67.1896 60.7169 68.867 62.6665 69.3334" stroke="#D5A99D" stroke-width="2.66667"/>
<path d="M67.9993 69.3334C66.2205 69.2811 64.4428 69.1523 62.666 69.3334" stroke="#C09193" stroke-width="2.66667"/>
<path d="M61.3326 86.6668C61.3332 86.6306 61.3451 86.7006 61.3326 86.6668C61.3202 86.6331 61.3562 86.6929 61.3326 86.6668C61.309 86.6407 61.3638 86.6813 61.3326 86.6668C61.3014 86.6524 61.3666 86.6675 61.3326 86.6668V86.6668C61.2639 86.6656 61.382 86.616 61.3326 86.6668C61.2832 86.7177 61.3338 86.5936 61.3326 86.6668V92.0002C61.332 92.0364 61.3202 91.9664 61.3326 92.0002C61.3451 92.0339 61.309 91.9741 61.3326 92.0002C61.3562 92.0263 61.3014 91.9857 61.3326 92.0002C61.3638 92.0146 61.2986 91.9995 61.3326 92.0002V92.0002C61.4013 92.0014 61.2832 92.0511 61.3326 92.0002C61.382 91.9493 61.3314 92.0734 61.3326 92.0002V86.6668Z" stroke="#9F4837" stroke-width="2.66667"/>
<path d="M50.6667 93.3336C50.8556 93.4658 50.6685 93.5785 50.6667 93.3336C50.6649 93.0226 50.7718 92.2899 50.6667 92.0003C50.0715 90.3519 48.686 88.2745 48 86.667C47.943 86.5348 48.0535 86.7544 48 86.667C47.7024 86.1868 47.9804 86.0449 48 86.667C48.0036 86.7914 47.959 87.8642 48 88.0003C48.5417 89.742 48.6295 91.6639 49.3333 93.3336C49.4331 93.5688 50.4671 93.1937 50.6667 93.3336Z" stroke="#ED7A3D" stroke-width="2.66667"/>
<path d="M49.3323 96.0003C49.6831 96.239 49.4535 96.3584 49.3323 96.0003C48.5159 93.5879 47.8067 90.2785 46.6656 88.0003C46.5595 87.7872 46.7717 88.1005 46.6656 88.0003C46.3625 87.7084 45.4817 87.5485 45.3323 88.0003C45.3009 88.0932 45.2904 89.2328 45.3323 89.3337C46.1616 91.2922 47.0614 92.7554 47.9989 94.667C48.0098 94.6862 47.882 94.3857 47.9989 94.667C48.1505 95.0335 48.9966 95.7744 49.3323 96.0003Z" stroke="#ED7A3D" stroke-width="2.66667"/>
<path d="M40.0004 92.0002C40.0601 91.951 39.9697 92.0734 40.0004 92.0002C40.031 91.927 40.0034 92.0862 40.0004 92.0002C39.9973 91.9142 40.0367 90.7526 40.0004 90.6669C39.964 90.5811 40.0644 90.7393 40.0004 90.6669C39.871 90.5207 38.8437 90.6999 38.667 90.6669C38.4903 90.6338 38.7876 90.5674 38.667 90.6669C38.6073 90.7161 38.6977 90.5937 38.667 90.6669C38.6364 90.7401 38.664 90.5809 38.667 90.6669C38.6701 90.7529 38.6307 91.9145 38.667 92.0002C38.7033 92.0859 38.603 91.9278 38.667 92.0002C38.7964 92.1464 39.8237 91.9671 40.0004 92.0002C40.1771 92.0333 39.8798 92.0996 40.0004 92.0002Z" stroke="#E77948" stroke-width="2.66667"/>
<path d="M90.6662 89.3335L74.6662 82.6668C73.0705 82.2283 73.454 81.7502 73.3329 80.0002C73.2396 78.6526 72.0571 77.3517 71.9995 76.0002V74.6668C76.3482 71.6453 79.3922 67.0081 79.9995 61.3335C79.9782 61.3688 80.0037 61.2924 79.9995 61.3335C79.9651 61.3562 80.0209 61.2982 79.9995 61.3335C79.9586 61.3393 80.034 61.3108 79.9995 61.3335C79.96 61.3212 80.0405 61.3277 79.9995 61.3335C80.2159 61.4016 80.9578 61.5017 81.3329 61.3335C82.9544 60.6107 83.5947 58.9053 83.9995 57.3335C84.2675 56.2943 84.1742 55.5659 83.9995 54.6668C83.7991 53.6396 83.5752 52.687 82.6662 52.0002C81.6957 51.2653 81.0872 51.6057 79.9995 52.0002C79.9709 52.0104 80.0297 52.0046 79.9995 52.0002C79.9694 51.9958 80.0242 52.0182 79.9995 52.0002C79.9749 51.9821 78.6797 52.0277 78.6662 52.0002C78.6528 51.9726 78.6654 52.0308 78.6662 52.0002C78.7694 48.3739 78.7952 43.6244 78.6662 40.0002C78.6563 39.7018 78.7873 40.2645 78.6662 40.0002C78.6603 39.856 78.4916 38.7609 78.6662 38.6668C80.3691 37.7558 82.7075 37.6741 83.9995 36.0002C84.6267 35.1872 85.0471 34.2906 85.3329 33.3335C85.6544 32.2602 85.5691 30.1985 85.3329 29.3335C84.9459 27.9279 84.3612 28.0702 82.6662 28.0002C82.6603 28.0002 81.9898 27.9281 81.3329 28.0002C80.8307 28.0562 80.4084 26.9992 79.9995 26.6668C78.4653 25.4194 77.4544 25.5415 75.9995 26.6668C75.547 27.0192 74.8171 27.9701 74.6662 28.0002C74.2673 28.0803 73.6723 27.0933 73.3329 26.6668C72.7097 25.8839 71.7678 26.3925 70.6662 26.6668C70.178 26.787 69.7675 26.4326 69.3329 26.6668C69.061 26.815 69.2197 26.9572 69.3329 26.6668C69.6465 25.8779 69.6604 24.6149 69.3329 24.0002C69.063 23.4936 68.7022 24.3025 67.9995 24.0002C67.1104 23.6197 66.3947 22.5427 65.3329 22.6668C63.9376 22.831 62.4761 23.4635 61.3329 24.0002C61.3249 24.0042 60.4382 23.7659 59.9995 24.0002C58.7412 24.6689 57.6608 25.5397 55.9995 25.3335C54.8563 25.1913 53.9482 25.8539 53.3329 26.6668C53.0252 27.0733 52.0908 27.1612 51.9995 28.0002C51.9261 28.6649 52.065 30.0021 51.9995 30.6668C51.9519 31.1434 52.1861 30.4906 51.9995 30.6668C51.682 30.9672 51.1922 31.0112 50.6662 30.6668C49.777 30.0841 48.5454 29.972 47.9995 30.6668C47.7852 30.9391 48.0154 31.6157 47.9995 32.0002C47.9817 32.3846 47.8924 32.9971 47.9995 33.3335C48.4322 34.6751 49.515 35.0771 50.6662 36.0002C49.5726 36.723 48.3727 38.7267 47.9995 40.0002C47.7614 40.8111 48.0392 41.3193 47.9995 42.6668C47.9182 45.42 47.9658 49.0267 47.9995 52.0002C48.0001 52.0365 48.0154 51.9674 47.9995 52.0002C47.9837 52.0329 48.0284 51.978 47.9995 52.0002C47.9707 52.0223 48.0354 51.9933 47.9995 52.0002C47.9637 52.0071 48.0347 52.01 47.9995 52.0002C46.6539 51.6017 44.8848 51.2253 43.9995 52.0002C43.2751 52.6369 42.8865 53.4915 42.6662 54.6668C42.4737 55.698 42.3189 56.3463 42.6662 57.3335C43.0433 58.4087 44.5945 59.4916 45.3329 60.0002C46.1724 60.5768 46.7432 61.4897 47.9995 61.3335C47.9659 61.3235 48.0344 61.3293 47.9995 61.3335C47.9727 61.311 48.0332 61.3435 47.9995 61.3335C47.984 61.3022 48.0264 61.356 47.9995 61.3335C47.9978 61.2985 48.0151 61.3648 47.9995 61.3335C48.2238 65.4643 50.6654 69.259 53.3329 72.0002C53.3448 71.5617 53.6683 72.3446 53.3329 72.0002C53.323 72.4227 53.3329 73.3175 53.3329 73.3335C53.4778 75.4279 53.4936 76.9769 53.3329 78.6668C53.2059 80.0004 51.8412 81.91 50.6662 82.6668C50.4042 82.835 50.2498 82.1642 49.3329 82.6668C48.3465 82.825 47.4403 83.3774 46.6662 84.0002C46.6308 84.0284 46.7109 83.9893 46.6662 84.0002C46.6215 84.011 46.7122 84.0086 46.6662 84.0002C45.9199 83.862 45.7755 84.8149 45.3329 85.3335C45.2667 85.4116 44.0943 85.2948 43.9995 85.3335C43.9048 85.3722 44.1018 85.3429 43.9995 85.3335C43.1878 85.2594 43.0989 84.7128 42.6662 85.3335C42.6034 85.424 42.773 86.6424 42.6662 86.6668C42.5594 86.6913 41.4282 86.7211 41.3329 86.6668C41.1304 86.5507 41.6544 86.5167 41.3329 86.6668C38.2089 88.1285 35.1772 89.3273 31.9995 90.6668C31.8904 90.7129 30.7635 90.5126 30.6662 90.6668C23.5647 83.5826 19.7618 75.1429 18.6662 65.3335C17.6599 56.317 19.6569 47.8974 23.9995 40.0002C24.98 38.2181 25.4793 36.2387 26.6662 34.6668C31.3423 28.4836 37.9595 24.2289 45.3329 21.3335C48.1274 20.2342 50.5086 19.0573 53.3329 18.6668C55.4546 18.3725 57.5543 18.6408 59.9995 18.6668C62.1113 18.6869 64.8283 18.3685 66.6662 18.6668C74.2004 19.8923 80.8052 22.8982 86.6662 28.0002C93.9285 34.3235 98.0009 42.4871 99.9995 52.0002C101.02 56.8478 102.117 61.7731 101.333 66.6668C100.007 74.9485 96.0787 83.0061 90.6662 89.3335C90.825 89.2694 90.559 89.4596 90.6662 89.3335ZM35.9995 37.3335C35.8328 37.6939 36.3429 37.5297 35.9995 37.3335C36.7478 35.7256 38.0073 33.6441 38.6662 32.0002C38.6364 32.2204 38.7774 31.7218 38.6662 32.0002C38.7932 31.1111 37.9879 31.4715 37.3329 32.0002C37.1463 32.1523 37.5016 31.7519 37.3329 32.0002C36.3445 33.4559 35.089 35.6135 34.6662 37.3335C34.5451 37.8261 35.6423 37.1273 35.9995 37.3335ZM34.6662 86.6668C35.4145 86.811 35.9737 87.4758 35.9995 86.6668C36.3072 76.9776 36.9717 67.0188 37.3329 57.3335C37.3587 56.6827 36.4402 56.1463 35.9995 56.0002C35.6502 55.882 35.0354 55.7639 34.6662 56.0002C34.3288 56.2144 34.8309 56.941 34.6662 57.3335C34.4697 57.8 34.6781 58.1622 34.6662 58.6668C34.4618 67.2028 33.2257 75.4642 33.3329 84.0002C33.3448 84.8852 34.4757 85.7758 34.6662 86.6668C34.6893 86.7755 34.5874 86.5889 34.6662 86.6668C34.7451 86.7448 34.5576 86.6453 34.6662 86.6668ZM31.9995 80.0002C32.4382 80.2945 33.2793 80.5268 33.3329 80.0002C33.4004 79.3174 33.3309 79.3436 33.3329 78.6668C33.3428 73.2345 33.2158 66.7618 33.3329 61.3335C33.3488 60.6067 33.5333 60.689 33.3329 60.0002C33.2098 59.5697 32.2238 59.6457 31.9995 60.0002C31.6998 60.4767 32.0353 60.7688 31.9995 61.3335C31.7098 65.7827 30.7615 70.2076 30.6662 74.6668C30.6106 77.2298 31.8308 79.2593 31.9995 80.0002C32.1028 80.4587 31.6522 79.7679 31.9995 80.0002ZM37.3329 62.6668C37.2019 62.8771 37.3587 63.7519 37.3329 64.0002C37.053 66.8575 37.3031 69.1408 37.3329 72.0002C37.2734 71.9323 37.3348 72.1065 37.3329 72.0002C37.0947 72.2224 37.5492 72.2505 37.3329 72.0002C37.3175 72.1067 37.3962 71.9421 37.3329 72.0002C37.7417 68.9806 38.7258 65.7124 38.6662 62.6668C38.6622 62.4426 38.7694 62.7669 38.6662 62.6668C38.4658 62.4726 37.5671 62.2964 37.3329 62.6668ZM29.3329 82.6668C29.1106 83.2255 29.71 83.1334 29.3329 82.6668C29.6584 81.8479 30.7377 80.9052 30.6662 80.0002C30.5789 78.9109 30.7099 76.8678 30.6662 72.0002C30.6583 71.1752 30.1288 70.5287 29.3329 70.6668C28.8843 70.7449 28.0611 70.2123 27.9995 70.6668C27.5827 73.6884 27.5966 76.9426 27.9995 80.0002C28.1067 80.8111 27.9579 81.1793 27.9995 81.3335C28.1305 81.8161 29.0074 82.2664 29.3329 82.6668Z" fill="#FDE8E1"/>
<path d="M78.6671 40.0001C78.5595 39.9376 78.7628 39.9522 78.6671 40.0001C75.9517 41.3809 73.6417 42.0249 70.6671 41.3334C67.7643 40.6586 64.5791 39.7602 62.6671 38.6667C60.6216 37.4983 58.3431 37.1772 56.0005 37.3334C53.8771 37.475 52.6664 37.2438 52.0005 37.3334C51.3864 37.4167 51.0918 37.677 50.6671 37.3334C49.5108 36.3732 48.4351 34.7288 48.0005 33.3334C47.8928 32.9835 47.9825 32.3999 48.0005 32.0001C48.0164 31.6002 47.7851 30.95 48.0005 30.6667C48.5487 29.944 49.7739 30.0606 50.6671 30.6667C51.1955 31.025 51.6815 30.9791 52.0005 30.6667C52.1879 30.4834 51.9526 29.8291 52.0005 29.3334C52.0662 28.6419 51.9267 28.6915 52.0005 28.0001C52.0922 27.1274 53.0248 25.7562 53.3338 25.3334C53.9518 24.4878 54.8521 25.1855 56.0005 25.3334C57.6692 25.5479 58.7364 24.6957 60.0005 24.0001C60.4411 23.7564 61.3258 24.0042 61.3338 24.0001C62.4822 23.4419 62.5989 22.8375 64.0005 22.6667C65.0671 22.5376 67.1073 22.271 68.0005 22.6667C68.7062 22.9812 69.0626 23.4731 69.3338 24.0001C69.6628 24.6395 69.6488 25.8461 69.3338 26.6667C69.0606 26.8208 69.2201 26.9687 69.3338 26.6667C69.7704 26.423 70.1767 26.7917 70.6671 26.6667C71.7736 26.3814 72.7078 25.8524 73.3338 26.6667C73.6747 27.1103 74.2664 28.0834 74.6671 28.0001C74.8186 27.9688 74.2126 27.0333 74.6671 26.6667C76.1285 25.4962 78.4593 25.3692 80.0005 26.6667C80.4112 27.0125 80.8294 28.0584 81.3338 28.0001C81.9937 27.9251 82.6611 28.0001 82.6671 28.0001C84.3698 28.0729 84.945 27.8713 85.3338 29.3334C85.571 30.2331 85.6568 32.217 85.3338 33.3334C85.0467 34.3289 84.6305 35.1545 84.0005 36.0001C82.7025 37.7412 80.3777 39.0524 78.6671 40.0001C78.6611 39.8501 78.4917 40.0979 78.6671 40.0001Z" fill="#2B1529"/>
<path d="M34.6663 37.3336C34.2602 37.1317 34.5287 36.4823 34.6663 36.0002C35.1469 34.3169 36.2093 33.4249 37.333 32.0002C37.5248 31.7572 37.1209 30.8158 37.333 30.6669C38.0776 30.1496 38.8107 31.1302 38.6663 32.0002C38.6325 32.2158 38.7927 31.7279 38.6663 32.0002C37.9172 33.6091 36.8503 35.76 35.9996 37.3336C35.8101 37.6863 35.0567 37.5256 34.6663 37.3336Z" fill="#599B97"/>
<path d="M50.6668 36.0001C51.0883 36.3342 51.3906 36.0811 52.0001 36.0001C52.6611 35.9131 53.8924 36.1378 56.0001 36.0001C58.3256 35.8483 60.6362 36.1976 62.6668 37.3335C64.5647 38.3964 66.4519 39.3441 69.3335 40.0001C72.2863 40.6723 75.9713 40.0092 78.6668 38.6668C78.5599 38.6061 78.7618 38.6202 78.6668 38.6668C78.7875 38.9341 78.6569 39.6984 78.6668 40.0001C78.7954 43.6648 78.7697 47.0001 78.6668 50.6668C78.6534 50.639 78.666 50.6978 78.6668 50.6668C78.6423 50.6486 78.6802 50.6946 78.6668 50.6668C78.6368 50.6623 78.6913 50.685 78.6668 50.6668C78.6382 50.6771 78.6968 50.6712 78.6668 50.6668C79.7513 50.2679 81.699 51.2571 82.6668 52.0001C83.5732 52.6946 83.8002 53.6281 84.0001 54.6668C84.1743 55.5759 84.2673 56.2827 84.0001 57.3335C83.5964 58.9228 82.9504 60.6026 81.3335 61.3335C80.9594 61.5035 80.2159 61.4023 80.0001 61.3335C79.9607 61.3211 80.0409 61.3276 80.0001 61.3335C79.9593 61.3393 80.0345 61.3105 80.0001 61.3335C79.9658 61.3564 80.0214 61.2978 80.0001 61.3335C79.9788 61.3691 80.0043 61.2919 80.0001 61.3335C79.3945 67.0714 76.3363 71.6116 72.0001 74.6668C70.7315 75.4058 69.3855 75.5932 68.0001 76.0001C66.6227 76.4051 65.4468 76.0609 64.0001 76.0001C60.4872 75.8523 57.5563 75.5383 54.6668 73.3335C54.6382 73.3115 54.6956 73.3415 54.6668 73.3335C54.638 73.3254 54.6875 73.3252 54.6668 73.3335C54.5698 73.2363 54.6094 73.3537 54.6668 73.3335C56.634 75.35 58.7864 76.3758 61.3335 77.3335C63.0869 77.9915 63.8115 78.8571 65.3335 78.6668C67.3046 78.4218 69.0538 77.3567 70.6668 76.0001C70.6493 76.0432 70.6982 75.9737 70.6668 76.0001C70.6667 76.0514 70.6843 75.957 70.6668 76.0001C70.6668 75.7896 71.7805 75.9293 72.0001 76.0001C72.198 76.0649 71.9091 74.8328 72.0001 74.6668C72.0575 76.0335 71.9071 78.6375 72.0001 80.0001C72.1209 81.7697 73.0756 82.2234 74.6668 82.6668C74.7954 84.2643 74.7697 85.2677 74.6668 86.6668C72.6026 89.9427 70.1559 92.6653 66.6668 93.3335C63.2073 93.9935 59.3745 92.5639 56.0001 90.6668C55.2877 90.0776 54.2478 90.3681 53.3335 89.3335C51.4078 87.159 50.5625 84.2926 49.3335 82.6668C50.2478 82.1586 50.4056 82.8369 50.6668 82.6668C51.8384 81.9015 53.2068 80.0152 53.3335 78.6668C53.4938 76.958 53.4779 75.4513 53.3335 73.3335C53.3335 73.3173 53.3236 72.4273 53.3335 72.0001C53.3453 71.5567 52.3346 71.015 52.0001 70.6668C49.3402 67.895 48.2238 65.5104 48.0001 61.3335C47.9984 61.2981 48.0156 61.3651 48.0001 61.3335C47.9846 61.3018 48.0269 61.3562 48.0001 61.3335C47.9734 61.3107 48.0336 60.0102 48.0001 60.0001C47.9666 59.99 48.0349 59.9959 48.0001 60.0001C46.7474 60.1581 46.1706 60.5832 45.3335 60.0001C44.5972 59.4859 43.0428 58.4207 42.6668 57.3335C42.3205 56.3353 42.4748 55.7095 42.6668 54.6668C42.8865 53.4783 43.2778 52.644 44.0001 52.0001C44.8828 51.2166 46.6583 50.2639 48.0001 50.6668C47.9644 50.6738 48.0352 50.6767 48.0001 50.6668C47.9713 50.6892 48.0358 50.6598 48.0001 50.6668C47.9843 50.6999 48.0289 50.6444 48.0001 50.6668C48.0007 50.7036 48.0159 50.6337 48.0001 50.6668C47.9665 47.6601 47.919 45.4507 48.0001 42.6668C48.0397 41.3042 47.7626 39.4868 48.0001 38.6668C48.3722 37.3791 49.5763 36.731 50.6668 36.0001ZM64.0001 44.0001C67.2063 44.1662 70.5528 44.0822 73.3335 45.3335C73.5314 45.4225 74.459 45.2788 74.6668 45.3335C74.8231 45.6534 75.3219 45.4995 74.6668 45.3335C74.6284 45.2533 74.7659 45.3764 74.6668 45.3335C72.1751 44.2138 69.3247 43.1406 66.6668 42.6668C64.8797 42.3489 63.0315 42.5899 61.3335 42.6668C59.578 42.7478 57.7219 42.2538 56.0001 42.6668C54.8602 42.9381 54.3487 43.413 53.3335 44.0001C53.0782 44.1479 52.204 44.9629 52.0001 45.3335C51.8161 45.6696 52.9891 45.4894 53.3335 45.3335C57.07 43.6267 59.9192 43.7896 64.0001 44.0001ZM69.3335 48.0001C69.4055 48.0854 70.5672 47.951 70.6668 48.0001C70.5561 47.9953 70.7663 48.0492 70.6668 48.0001C73.1525 48.1054 75.4355 48.6066 77.3335 49.3335C77.3135 49.3341 77.3523 49.3405 77.3335 49.3335C77.3155 49.3417 77.3534 49.3329 77.3335 49.3335C77.3203 49.348 77.3514 49.3253 77.3335 49.3335C77.3271 49.3521 77.3467 49.3189 77.3335 49.3335C77.4799 48.9204 77.5017 48.4132 77.3335 48.0001C77.2988 47.9136 77.422 48.0534 77.3335 48.0001C75.4098 46.8785 72.8675 46.6101 70.6668 46.6668C70.2373 46.6769 69.5571 46.4643 69.3335 46.6668C68.9396 47.0231 68.9119 47.498 69.3335 48.0001ZM60.0001 46.6668C59.9152 46.5465 60.1307 46.7315 60.0001 46.6668C59.8696 46.6021 60.1451 46.6603 60.0001 46.6668C58.0032 46.7539 56.2164 47.496 54.6668 48.0001C53.9741 48.2249 53.6323 47.6478 53.3335 48.0001C52.9851 48.4071 52.9871 48.8921 53.3335 49.3335C53.2912 49.3216 53.36 49.3667 53.3335 49.3335C53.2897 49.3469 53.3757 49.3454 53.3335 49.3335C55.3719 48.6997 56.5432 48.1722 58.6668 48.0001C59.118 47.9637 59.7963 48.1398 60.0001 48.0001C60.4395 47.6944 60.3762 47.1932 60.0001 46.6668ZM66.6668 50.6668C66.0988 53.5823 65.8039 57.1656 66.6668 60.0001C66.5481 59.6985 66.6747 60.0244 66.6668 60.0001C66.8904 60.561 67.1517 60.9488 66.6668 61.3335C66.0592 61.8174 66.1014 62.3611 65.3335 62.6668C65.187 62.6344 65.1949 62.7215 65.3335 62.6668C66.3349 62.8834 67.0403 62.9685 68.0001 62.6668C68.5384 62.4967 69.1098 61.7283 69.3335 61.3335C69.569 60.9103 69.3275 60.5812 69.3335 60.0001C69.5848 59.6742 70.172 59.7855 70.6668 60.0001C71.0507 62.5492 72.2226 64.1702 74.6668 64.0001C76.3629 63.8827 77.9899 62.8439 78.6668 61.3335C78.9399 60.724 78.7202 60.5245 78.6668 60.0001C78.6094 59.4271 77.7036 57.8842 77.3335 57.3335C76.6348 56.2968 75.787 56.1479 74.6668 56.0001C72.4779 55.7106 71.504 56.6482 70.6668 58.6668C70.5837 58.7377 70.7341 58.6891 70.6668 58.6668C70.633 58.6558 70.6811 58.7108 70.6668 58.6668C70.6525 58.6228 70.6539 58.72 70.6668 58.6668C70.8489 57.9217 70.738 57.8457 70.6668 57.3335C70.4907 56.066 70.5817 54.1413 70.6668 53.3335C71.3753 52.6795 72.4171 52.075 73.3335 52.0001C73.4957 53.634 73.3962 55.2135 74.6668 54.6668C74.8025 54.6085 74.5864 53.4596 74.6668 53.3335C74.6694 53.484 74.7472 53.2073 74.6668 53.3335C74.6569 52.7362 74.9379 52.4719 74.6668 52.0001L77.3335 53.3335C77.3004 53.3249 77.37 53.3572 77.3335 53.3335C77.314 53.3426 77.3666 53.3421 77.3335 53.3335C77.3909 53.4246 77.3928 53.3071 77.3335 53.3335C76.3716 51.8494 75.1146 50.7235 73.3335 50.6668C72.1044 50.6283 71.12 50.5696 70.6668 50.6668C70.4016 50.6486 70.8509 50.9624 70.6668 50.6668C70.4887 50.3793 69.6679 50.6749 69.3335 50.6668C68.6467 50.6506 68.0437 49.7647 68.0001 49.3335C67.9936 49.2777 68.0213 49.3762 68.0001 49.3335C67.979 49.2907 68.0313 49.354 68.0001 49.3335C67.7725 49.1857 68.1664 49.0743 68.0001 49.3335C67.6736 49.8396 67.031 50.1303 66.6668 50.6668ZM54.6668 53.3335C54.5995 53.9652 55.6182 54.4198 56.0001 54.6668C55.6498 54.8045 56.3227 54.8733 56.0001 54.6668C56.3643 54.523 57.2503 53.8417 57.3335 53.3335C57.4225 52.7908 57.3255 52.3079 57.3335 52.0001C58.3329 51.9779 59.3154 52.5621 60.0001 53.3335C60.0694 53.5724 60.1684 53.5218 60.0001 53.3335C59.5984 51.9344 58.5348 50.8146 57.3335 50.6668C56.5418 50.5696 55.5139 50.4684 54.6668 50.6668C53.3843 50.9644 52.489 51.8352 52.0001 53.3335C51.9249 53.5643 53.1059 53.4266 53.3335 53.3335H54.6668ZM81.3335 52.0001C80.427 51.7308 80.1585 52.6268 80.0001 53.3335C79.9981 53.3517 80.0773 53.7273 80.0001 54.6668C79.9269 55.5739 79.8834 56.5216 80.0001 57.3335C79.5192 57.4387 80.0714 57.8336 80.0001 57.3335C81.0174 57.1128 82.4768 56.8647 82.6668 56.0001C82.7697 55.5365 82.7341 55.2742 82.6668 54.6668C82.6074 54.1384 81.5967 53.8477 81.3335 53.3335C81.2751 53.2219 81.4293 53.4132 81.3335 53.3335C81.2376 53.2537 81.4519 52.0357 81.3335 52.0001ZM45.3335 57.3335C45.7986 57.7101 46.1918 57.5784 46.6668 57.3335C47.0171 57.1533 47.8299 56.48 48.0001 56.0001C48.3168 55.0971 48.3108 54.2871 48.0001 53.3335C47.9851 53.2873 48.0312 53.37 48.0001 53.3335C47.969 53.297 48.0424 53.3546 48.0001 53.3335C47.3233 52.9974 47.2348 53.0419 46.6668 53.3335C46.1245 53.6108 45.4819 53.9723 45.3335 54.6668C45.1276 55.6265 44.5379 56.6937 45.3335 57.3335ZM58.6668 60.0001C58.6066 59.5058 57.5864 59.0983 57.3335 58.6668C57.0805 58.2353 57.7407 57.6365 57.3335 57.3335C56.9263 57.0304 56.4996 56.1286 56.0001 56.0001C55.5007 55.8717 53.8491 55.9344 53.3335 56.0001C52.292 56.1328 51.3173 56.5337 50.6668 57.3335C50.0163 58.1332 50.5453 59.0018 50.6668 60.0001C50.727 60.4944 50.4139 60.9019 50.6668 61.3335C50.9197 61.765 51.5929 62.3637 52.0001 62.6668C52.4073 62.9699 52.834 63.8717 53.3335 64.0001C53.8329 64.1286 54.1511 64.0658 54.6668 64.0001C55.7083 63.8674 56.683 63.4665 57.3335 62.6668C57.9839 61.867 58.7883 60.9984 58.6668 60.0001ZM62.6668 68.0001L64.0001 69.3335C63.9751 69.3024 64.0373 69.3425 64.0001 69.3335C63.9967 69.2921 64.0252 69.3645 64.0001 69.3335C63.8576 69.2302 64.012 69.4833 64.0001 69.3335C64.8452 69.953 65.8277 69.9287 66.6668 69.3335C66.9122 69.1593 66.9637 69.3476 66.6668 69.3335C66.2551 69.3132 65.7491 69.2565 65.3335 69.3335C64.9871 69.3962 64.2673 69.4975 64.0001 69.3335C63.8972 69.3699 63.9111 69.2788 64.0001 69.3335C64.6948 69.0804 65.0465 67.9029 65.3335 68.0001C66.0044 68.2289 67.6122 68.482 68.0001 68.0001C69.8189 67.2348 71.1194 65.715 72.0001 64.0001C72.1189 63.7713 72.2475 63.9475 72.0001 64.0001C67.7629 64.9193 62.9377 64.9274 58.6668 64.0001C58.1997 63.8989 58.4728 64.888 58.6668 65.3335C59.5198 67.2913 60.6917 67.5081 62.6668 68.0001ZM61.3335 86.6668C61.3341 86.6321 61.3459 86.6991 61.3335 86.6668C61.321 86.6345 61.357 86.6918 61.3335 86.6668C61.3099 86.6418 61.3646 85.3473 61.3335 85.3335C61.3024 85.3196 61.3674 85.3341 61.3335 85.3335C61.265 85.3322 61.3827 85.2848 61.3335 85.3335C61.2842 85.3821 61.3347 86.5967 61.3335 86.6668V90.6668C61.321 90.6345 61.3329 90.7015 61.3335 90.6668C61.3099 90.6418 61.3459 90.6991 61.3335 90.6668C61.3024 90.653 61.357 90.6918 61.3335 90.6668C61.2996 90.6662 61.3646 90.6806 61.3335 90.6668C61.2842 90.7155 61.4019 90.668 61.3335 90.6668C61.3323 90.7369 61.3827 90.6181 61.3335 90.6668V86.6668Z" fill="#AC543C"/>
<path d="M65.3334 44.0002C61.2122 43.8291 57.1069 43.9464 53.3334 45.3335C52.9857 45.4602 53.1476 45.6067 53.3334 45.3335C53.5393 45.0324 54.4089 44.1203 54.6668 44.0002C55.6921 43.523 56.1822 42.8873 57.3334 42.6668C59.0723 42.3312 60.894 42.7327 62.6668 42.6668C64.3816 42.6043 66.1953 42.4085 68.0001 42.6668C70.6843 43.0519 73.4838 44.4236 76.0001 45.3335C75.9614 45.2683 76.1002 45.3684 76.0001 45.3335C76.158 45.5935 75.3283 45.4684 74.6668 45.3335C74.4569 45.2891 74.8666 45.4059 74.6668 45.3335C71.8586 44.3166 68.5713 44.1351 65.3334 44.0002Z" fill="#973F33"/>
<path d="M70.6662 48.0003C70.2325 47.5758 70.2611 46.9682 70.6662 46.667C70.8963 46.4958 71.5577 46.6755 71.9995 46.667C74.2635 46.6191 76.6873 47.052 78.6662 48.0003C78.6306 47.9272 78.7573 48.0453 78.6662 48.0003C78.8393 48.3495 78.8169 48.9845 78.6662 49.3336C78.6596 49.3494 78.6798 49.3214 78.6662 49.3336C78.6526 49.3459 78.6847 49.3267 78.6662 49.3336C78.6477 49.3406 78.6867 49.3331 78.6662 49.3336C78.6457 49.3342 78.6856 49.3396 78.6662 49.3336C76.7137 48.7191 74.5567 48.0893 71.9995 48.0003C71.8857 47.9962 70.7686 48.0418 70.6662 48.0003C70.7404 48.0724 70.5638 47.9588 70.6662 48.0003Z" fill="#22151C"/>
<path d="M61.3322 46.6667C61.7047 47.119 61.7674 47.7373 61.3322 48C61.1303 48.1201 60.4458 47.9687 59.9989 48C57.8956 48.1479 55.3512 48.7888 53.3322 49.3334C53.2889 49.3449 53.3741 49.3436 53.3322 49.3334C53.2903 49.3231 53.3585 49.3619 53.3322 49.3334C52.9892 48.9541 52.9872 48.3497 53.3322 48C53.6282 47.6973 53.9795 48.1931 54.6656 48C56.2004 47.5668 58.0211 46.7415 59.9989 46.6667C60.1424 46.6611 61.2029 46.6111 61.3322 46.6667C61.4616 46.7223 61.2481 46.5633 61.3322 46.6667Z" fill="#1E111E"/>
<path d="M71.9989 50.6669C72.0315 50.9664 71.74 51.7819 71.9989 52.0002C71.973 51.9381 72.0533 52.0455 71.9989 52.0002C72.0071 51.9344 72.0247 52.0624 71.9989 52.0002C71.9906 52.0661 72.0394 51.9446 71.9989 52.0002C71.9583 52.0558 72.0632 51.9667 71.9989 52.0002C71.4876 52.2669 70.8157 52.9839 70.6655 53.3336C70.572 54.1045 70.4719 54.7907 70.6655 56.0002C70.7439 56.4891 70.8657 57.9559 70.6655 58.6669C70.6498 58.6249 70.6513 58.7177 70.6655 58.6669C70.6283 58.6564 70.6813 58.7089 70.6655 58.6669C70.5742 58.7345 70.7395 58.6882 70.6655 58.6669V60.0002C70.1216 59.7954 69.6085 59.6892 69.3322 60.0002C67.1761 57.3591 66.4414 53.9843 66.6655 50.6669C67.0659 50.1549 67.6399 49.8166 67.9989 49.3336C67.7487 49.1925 68.1816 49.0863 67.9989 49.3336C67.9756 49.2928 68.0332 49.3532 67.9989 49.3336C67.9917 49.2804 68.0221 49.3743 67.9989 49.3336C68.0467 49.7451 68.5772 50.6514 69.3322 50.6669C69.6999 50.6746 70.4697 50.3925 70.6655 50.6669C70.8679 50.949 71.7073 50.6495 71.9989 50.6669Z" fill="#9C4534"/>
<path d="M58.6671 52.0002C57.52 51.6597 56.4705 51.1886 56.0004 52.0002L53.3337 53.3335C53.0935 53.4126 53.2543 53.5295 53.3337 53.3335C53.8498 52.0612 54.6465 50.9196 56.0004 50.6668C56.8946 50.4983 57.8313 50.5843 58.6671 50.6668C59.9353 50.7923 60.9096 52.1454 61.3337 53.3335C61.4069 53.5364 61.5113 53.4934 61.3337 53.3335C60.6108 52.6784 59.7222 51.9812 58.6671 52.0002Z" fill="#84362C"/>
<path d="M74.666 53.3336C73.6904 53.0343 73.6906 52.5688 73.3327 53.3336C72.4915 53.4105 71.3164 53.9956 70.666 54.6669C70.7914 54.2908 71.5724 53.6204 71.9993 53.3336C71.9655 53.3934 72.053 53.2975 71.9993 53.3336C71.9925 53.4044 72.0332 53.2738 71.9993 53.3336C72.0062 53.2628 72.0209 53.4004 71.9993 53.3336C71.9778 53.2668 72.0448 53.3823 71.9993 53.3336C71.7831 53.0988 70.6933 52.3224 70.666 52.0003C71.0821 51.9005 72.2044 51.9608 73.3327 52.0003C74.9678 52.0585 76.4497 53.1435 77.3327 54.6669C77.3854 54.7605 77.3872 54.6399 77.3327 54.6669C77.3148 54.6764 77.3631 54.6758 77.3327 54.6669C77.3023 54.6581 77.3662 54.6913 77.3327 54.6669L74.666 53.3336Z" fill="#7F3228"/>
<path d="M66.6654 52C66.4866 55.4812 67.6116 58.5617 69.332 61.3333C69.3268 61.9152 69.5386 62.2429 69.332 62.6667C69.1359 63.062 68.4709 63.8297 67.9987 64C67.1567 64.3021 66.2105 64.2169 65.332 64C65.2036 63.9676 65.2105 64.0547 65.332 64C66.0056 63.6938 66.1324 63.1512 66.6654 62.6667C67.0907 62.2814 68.1949 61.895 67.9987 61.3333C67.8945 61.0312 68.0057 60.0243 67.9987 60C67.2418 57.1615 66.1671 54.9196 66.6654 52Z" fill="#7F3228"/>
<path d="M75.9987 52.0002C76.2767 52.4767 75.9886 52.7301 75.9987 53.3335C76.0013 53.4856 76.0812 54.5394 75.9987 54.6668C75.9162 54.7943 76.1379 54.608 75.9987 54.6668C74.6959 55.2191 73.4984 54.9841 73.332 53.3335C73.7318 52.5808 74.9089 51.7056 75.9987 52.0002Z" fill="#4B1F1C"/>
<path d="M58.666 52.0002C58.6568 52.3266 58.7686 52.7579 58.666 53.3335C58.5701 53.8726 57.7525 54.5143 57.3326 54.6668C56.9287 54.8129 56.3712 54.8859 55.9993 54.6668C55.5589 54.4048 55.9217 54.0036 55.9993 53.3335C56.5127 52.3197 57.4132 51.5749 58.666 52.0002Z" fill="#482729"/>
<path d="M81.3327 53.3336C81.2428 53.2548 81.4439 53.3687 81.3327 53.3336C81.4227 53.4123 82.6113 53.2234 82.6661 53.3336C82.9132 53.8413 82.6103 55.4785 82.6661 56.0002C82.7292 56.5999 82.7627 56.8758 82.6661 57.3336C82.4877 58.1871 82.2879 58.449 81.3327 58.6669C80.8812 58.7708 80.0663 59.1606 79.9994 58.6669C79.8898 57.8653 79.9306 56.8957 79.9994 56.0002C80.0719 55.0727 79.9975 54.6849 79.9994 54.6669C80.1481 53.9693 80.4817 53.0677 81.3327 53.3336Z" fill="#9F4035"/>
<path d="M46.6669 57.3335C45.725 56.7522 45.0899 55.5388 45.3336 54.6668C45.5093 54.0359 46.0249 53.5855 46.6669 53.3335C47.3393 53.0686 48.5322 53.0281 49.3336 53.3335C49.2968 53.3003 49.3836 53.3527 49.3336 53.3335C49.3157 53.2915 49.3704 53.3667 49.3336 53.3335C49.7014 54.2 49.7084 55.1797 49.3336 56.0002C49.1321 56.4362 48.4149 57.1698 48.0002 57.3335C47.4379 57.5561 47.2175 57.6757 46.6669 57.3335Z" fill="#973F33"/>
<path d="M34.6653 88.0001C34.5678 87.9781 33.4028 88.0797 33.332 88.0001C33.2612 87.9205 33.3527 88.111 33.332 88.0001C33.1609 87.0905 33.3427 86.2369 33.332 85.3334C33.2357 76.6194 33.1484 67.3807 33.332 58.6668C33.3427 58.1517 33.1555 57.8097 33.332 57.3334C33.48 56.9328 34.3623 56.2188 34.6653 56.0001C34.9969 55.7589 35.6849 55.8795 35.9987 56.0001C36.3944 56.1493 36.0218 56.6691 35.9987 57.3334C35.6742 67.2207 34.9416 76.7754 34.6653 86.6668C34.6422 87.4926 35.3374 88.1473 34.6653 88.0001Z" fill="#599B97"/>
<path d="M55.6098 64.7726C57.8016 64.4958 59.36 62.4939 59.0906 60.3012C58.8213 58.1085 56.8262 56.5554 54.6345 56.8323C52.4428 57.1091 50.8844 59.111 51.1537 61.3037C51.423 63.4963 53.4181 65.0494 55.6098 64.7726Z" fill="#913C32"/>
<path d="M70.666 61.3336V60.0002C71.4883 57.8962 73.8492 57.0318 75.9993 57.3336C77.0997 57.4876 77.9798 57.5864 78.666 58.6669C79.0296 59.2409 78.6096 60.7363 78.666 61.3336C78.7185 61.8801 78.9343 62.0317 78.666 62.6669C78.0012 64.2412 76.3321 65.2112 74.666 65.3336C72.2651 65.5108 71.0432 63.9905 70.666 61.3336Z" fill="#913C32"/>
<path d="M30.6661 81.3335C30.4225 81.101 30.7385 80.4591 30.6661 80.0001C30.5478 79.2586 30.6272 77.232 30.6661 74.6668C30.733 70.2037 30.4629 65.7865 30.6661 61.3335C30.6912 60.7683 31.7893 60.4771 31.9995 60.0001C31.9132 59.5692 32.1568 59.6454 31.9995 60.0001C32.1401 60.6895 32.0106 61.9393 31.9995 62.6668C31.9173 68.0999 32.0064 73.2297 31.9995 78.6668C31.9981 79.3442 32.0468 80.6501 31.9995 81.3335C31.9619 81.8605 30.9738 81.6281 30.6661 81.3335Z" fill="#599B97"/>
<path d="M37.3326 62.6669C37.5496 62.2755 38.4801 62.4617 38.6659 62.6669C38.6622 62.43 38.7616 62.7727 38.6659 62.6669C38.7211 65.8844 39.0448 70.1435 38.6659 73.3336C38.6517 73.4461 38.7246 73.2722 38.6659 73.3336C38.4452 73.5684 37.5331 73.598 37.3326 73.3336C37.2775 73.2619 37.3344 73.4459 37.3326 73.3336C37.305 70.3128 37.0732 67.0189 37.3326 64.0002C37.3565 63.7379 37.2112 62.889 37.3326 62.6669Z" fill="#599B97"/>
<path d="M67.9998 69.3334C66.3296 69.2835 64.3348 69.1607 62.6665 69.3334C60.7169 68.867 59.5084 67.1896 58.6665 65.3334C58.2054 65.2375 58.475 64.9112 58.6665 65.3334C62.8821 66.2126 67.8173 66.2049 71.9998 65.3334C72.117 65.1165 72.244 65.2835 71.9998 65.3334C71.1305 66.9593 69.7951 68.6079 67.9998 69.3334Z" fill="#FDFDFD"/>
<path d="M67.9993 69.3336C67.5916 69.7469 67.3713 69.5298 66.666 69.3336C66.3643 69.2502 66.0629 69.1165 65.3327 69.3336C65.2245 69.3649 65.2391 69.2867 65.3327 69.3336C65.6135 69.4743 64.9686 70.7208 65.3327 70.6669C65.7696 70.6009 66.2333 70.6496 66.666 70.6669C66.924 70.5176 66.9781 70.6791 66.666 70.6669C65.7839 71.1775 64.8877 71.1983 63.9993 70.6669C63.8496 70.5784 64.0118 69.4621 63.9993 69.3336C63.9957 69.2982 64.0257 69.3603 63.9993 69.3336C63.973 69.3069 64.0384 69.3414 63.9993 69.3336H62.666C64.4428 69.1773 66.2205 69.2884 67.9993 69.3336Z" fill="#822528"/>
<path d="M29.3325 84.0001C28.9859 83.5906 28.1387 83.1603 27.9992 82.6668C27.9548 82.5091 28.1133 82.1628 27.9992 81.3335C27.5702 78.2067 27.5554 75.0901 27.9992 72.0001C28.0647 71.5353 28.8549 70.7467 29.3325 70.6668C30.1799 70.5255 30.6574 71.1565 30.6659 72.0001C30.7123 76.9781 30.5729 80.2195 30.6659 81.3335C30.7419 82.259 31.0124 83.1626 30.6659 84.0001C30.4292 84.5715 29.734 84.4773 29.3325 84.0001Z" fill="#599B97"/>
<path d="M73.3331 74.6669V76.0002C73.2387 76.1639 73.5381 76.0641 73.3331 76.0002C73.1055 75.9303 71.9997 75.7926 71.9997 76.0002C71.9997 76.0507 72.0178 75.9577 71.9997 76.0002C71.9816 76.0427 72.0323 75.9741 71.9997 76.0002C70.3285 77.3377 68.7088 78.4253 66.6664 78.6669C65.0895 78.8545 63.1499 77.9823 61.3331 77.3335C58.694 76.3893 56.7047 75.3218 54.6664 73.3335C54.5659 73.2377 54.6069 73.3535 54.6664 73.3335C54.6366 73.3256 54.6878 73.3254 54.6664 73.3335C54.6367 73.3119 54.6962 73.3414 54.6664 73.3335C57.6602 75.5074 61.6933 77.1878 65.3331 77.3335C66.832 77.3934 67.9059 76.3994 69.3331 76.0002C70.7685 75.599 72.0187 75.3955 73.3331 74.6669Z" fill="#8C3831"/>
<path d="M74.6669 82.6667L89.3335 89.3334C89.3489 89.3944 89.4007 89.2541 89.3335 89.3334C85.2728 93.9991 80.2065 97.6489 74.6669 100C74.6467 100.009 74.6887 100.002 74.6669 100C74.645 99.9977 74.6851 100.013 74.6669 100C74.6486 99.9868 74.6772 100.021 74.6669 100C74.6566 99.979 74.6667 100.024 74.6669 100V86.6667C74.7666 85.2613 74.7915 84.2715 74.6669 82.6667Z" fill="#599B97"/>
<path d="M49.3319 84C50.5497 85.5711 51.4238 87.232 53.3319 89.3333C54.2379 90.3331 55.2926 91.4307 55.9986 92C57.8538 94.6472 57.4596 97.0946 55.9986 100C55.4808 101.033 55.4124 102.236 54.6652 102.667C54.2475 102.909 53.8085 102.739 53.3319 102.667C44.558 101.356 36.8662 98.21 30.6652 92C30.7613 91.8493 30.5574 90.7117 30.6652 90.6667C33.805 89.3578 36.9118 88.0949 39.9986 86.6667C40.3163 86.5199 41.1319 86.5532 41.3319 86.6667C41.2264 86.6905 41.4261 86.7197 41.3319 86.6667C41.2699 86.7551 41.4374 86.6428 41.3319 86.6667C41.7594 86.0601 43.1965 85.2609 43.9986 85.3333C43.9049 85.3711 44.0996 85.3425 43.9986 85.3333C43.9332 85.4096 44.0922 85.2955 43.9986 85.3333C44.4359 84.8266 44.5945 85.1983 45.3319 85.3333C45.2878 85.344 45.3773 85.3416 45.3319 85.3333C45.376 85.3227 46.6303 85.361 46.6652 85.3333C47.4301 84.7249 48.3572 84.1546 49.3319 84ZM49.3319 94.6667C49.3339 94.9132 49.5398 94.7997 49.3319 94.6667C49.3299 94.3536 49.4476 93.6249 49.3319 93.3333C48.6769 91.6742 47.4203 89.618 46.6652 88C46.6025 87.867 46.7241 88.088 46.6652 88C46.3377 87.5167 46.6437 87.3739 46.6652 88C46.6201 87.863 46.6692 88.1252 46.6652 88C47.2614 89.753 48.5573 91.6527 49.3319 93.3333C49.4417 93.5701 49.1123 94.5258 49.3319 94.6667ZM47.9986 96C48.1084 96.3287 48.3163 96.2191 47.9986 96C47.2592 93.7852 46.3654 91.4249 45.3319 89.3333C45.2358 89.1377 45.428 88.092 45.3319 88C45.0574 87.732 44.1339 88.9186 43.9986 89.3333C43.9607 89.2407 43.9702 89.4186 43.9986 89.3333C44.7497 91.1314 45.8161 92.9117 46.6652 94.6667C46.5593 94.4084 46.675 94.6843 46.6652 94.6667C46.8025 95.0032 47.6946 95.7926 47.9986 96ZM38.6652 92C38.7146 91.958 38.6399 90.7292 38.6652 90.6667C38.6678 90.7401 38.6906 90.6042 38.6652 90.6667C38.6627 90.5932 38.6953 90.7399 38.6652 90.6667C38.6352 90.5934 38.7182 90.7285 38.6652 90.6667C38.5583 90.5418 38.8113 90.6949 38.6652 90.6667C38.5192 90.6384 38.7649 90.5817 38.6652 90.6667C38.6159 90.7087 38.6906 90.6042 38.6652 90.6667C38.6399 90.7292 38.6627 90.5932 38.6652 90.6667C38.6352 90.5934 38.6678 90.7401 38.6652 90.6667C38.6123 90.6048 38.6953 90.7399 38.6652 90.6667C38.7721 90.7915 38.5192 91.9717 38.6652 92C38.8113 92.0283 38.5656 92.0849 38.6652 92Z" fill="#FD9148"/>
<path d="M50.6667 93.3336C50.4671 93.1937 49.4331 93.5688 49.3333 93.3336C48.6295 91.6639 48.5417 89.742 48 88.0003C47.959 87.8642 48.0036 86.7914 48 86.667C47.7024 86.1868 47.9804 86.0449 48 86.667C47.943 86.5348 48.0535 86.7544 48 86.667C48.686 88.2745 50.0715 90.3519 50.6667 92.0003C50.7718 92.2899 50.6649 93.0226 50.6667 93.3336C50.8556 93.4658 50.6685 93.5785 50.6667 93.3336Z" fill="#DC6232"/>
<path d="M49.3323 96.0003C48.9966 95.7744 48.1505 95.0335 47.9989 94.667C47.882 94.3857 48.0098 94.6862 47.9989 94.667C47.0614 92.7554 46.1616 91.2922 45.3323 89.3337C45.2904 89.2328 45.3009 88.0932 45.3323 88.0003C45.4817 87.5485 46.3625 87.7084 46.6656 88.0003C46.5595 87.7872 46.7717 88.1005 46.6656 88.0003C47.8067 90.2785 48.5159 93.5879 49.3323 96.0003C49.6831 96.239 49.4535 96.3584 49.3323 96.0003Z" fill="#DC6232"/>
<path d="M37.6581 90.2064C37.3798 90.4474 38.2799 90.9446 38.5171 91.2262C38.7954 90.9851 39.7621 90.6349 39.525 90.3533C39.2878 90.0717 37.9364 89.9653 37.6581 90.2064Z" fill="#D16047"/>
</svg>
