<svg width="524" height="278" viewBox="0 0 524 278" fill="none" xmlns="http://www.w3.org/2000/svg">
<mask id="path-1-inside-1_74_3089" fill="white">
<path d="M768 -106C768 106.077 596.077 278 384 278C171.923 278 0 106.077 0 -106C0 -318.077 171.923 -490 384 -490C596.077 -490 768 -318.077 768 -106ZM189.647 -106C189.647 1.33823 276.662 88.353 384 88.353C491.338 88.353 578.353 1.33823 578.353 -106C578.353 -213.338 491.338 -300.353 384 -300.353C276.662 -300.353 189.647 -213.338 189.647 -106Z"/>
</mask>
<path d="M768 -106C768 106.077 596.077 278 384 278C171.923 278 0 106.077 0 -106C0 -318.077 171.923 -490 384 -490C596.077 -490 768 -318.077 768 -106ZM189.647 -106C189.647 1.33823 276.662 88.353 384 88.353C491.338 88.353 578.353 1.33823 578.353 -106C578.353 -213.338 491.338 -300.353 384 -300.353C276.662 -300.353 189.647 -213.338 189.647 -106Z" fill="#A47DD3" stroke="#B3AAAA" stroke-width="2" mask="url(#path-1-inside-1_74_3089)"/>
</svg>
