<svg width="171" height="201" viewBox="0 0 171 201" fill="none" xmlns="http://www.w3.org/2000/svg">
<mask id="path-1-inside-1_74_3090" fill="white">
<path d="M171 188C171 291.83 86.8295 376 -17 376C-120.83 376 -205 291.83 -205 188C-205 84.1705 -120.83 0 -17 0C86.8295 0 171 84.1705 171 188ZM-112.152 188C-112.152 240.551 -69.551 283.152 -17 283.152C35.551 283.152 78.152 240.551 78.152 188C78.152 135.449 35.551 92.848 -17 92.848C-69.551 92.848 -112.152 135.449 -112.152 188Z"/>
</mask>
<path d="M171 188C171 291.83 86.8295 376 -17 376C-120.83 376 -205 291.83 -205 188C-205 84.1705 -120.83 0 -17 0C86.8295 0 171 84.1705 171 188ZM-112.152 188C-112.152 240.551 -69.551 283.152 -17 283.152C35.551 283.152 78.152 240.551 78.152 188C78.152 135.449 35.551 92.848 -17 92.848C-69.551 92.848 -112.152 135.449 -112.152 188Z" fill="#A47DD3" stroke="#B3AAAA" stroke-width="2" mask="url(#path-1-inside-1_74_3090)"/>
</svg>
